<svg width="63" height="65" viewBox="0 0 63 65" fill="none" xmlns="http://www.w3.org/2000/svg">
<path d="M31.2951 24.2154L35.2281 31.2959H27.3622L31.2951 24.2154ZM62.5691 14.7636L57.7545 50.8734C57.7027 51.2629 57.5564 51.6339 57.3282 51.9539C57.1 52.2738 56.797 52.5331 56.4455 52.7089L32.3724 64.7455C32.0379 64.9129 31.6691 65 31.2951 65C30.9211 65 30.5523 64.9129 30.2178 64.7455L6.1447 52.7089C5.79326 52.5331 5.49022 52.2738 5.26205 51.9539C5.03388 51.6339 4.88751 51.2629 4.83572 50.8734L0.0210934 14.7636C-0.0488489 14.2387 0.0562394 13.7054 0.320082 13.2463C0.583924 12.7871 0.991796 12.4278 1.48053 12.2239L30.3683 0.187341C30.6617 0.0636978 30.9768 0 31.2951 0C31.6135 0 31.9286 0.0636978 32.2219 0.187341L61.1097 12.2239C61.5984 12.4278 62.0063 12.7871 62.2702 13.2463C62.534 13.7054 62.6391 14.2387 62.5691 14.7636ZM45.4381 39.7576L33.4015 18.0917C33.1933 17.7155 32.8882 17.4018 32.5177 17.1834C32.1473 16.9651 31.7251 16.8499 31.2951 16.8499C30.8651 16.8499 30.4429 16.9651 30.0725 17.1834C29.7021 17.4018 29.3969 17.7155 29.1887 18.0917L17.1521 39.7576C16.9988 40.0342 16.9015 40.3383 16.8657 40.6525C16.8299 40.9668 16.8563 41.285 16.9435 41.589C17.0307 41.893 17.1769 42.1769 17.3738 42.4244C17.5707 42.6719 17.8144 42.8782 18.091 43.0315C18.3676 43.1849 18.6717 43.2822 18.986 43.318C19.3002 43.3538 19.6184 43.3273 19.9224 43.2402C20.2264 43.153 20.5103 43.0068 20.7578 42.8099C21.0053 42.613 21.2116 42.3693 21.3649 42.0927L24.675 36.1105H37.9152L41.2253 42.0927C41.3786 42.3693 41.5849 42.613 41.8324 42.8099C42.0799 43.0068 42.3638 43.153 42.6678 43.2402C42.9718 43.3273 43.29 43.3538 43.6043 43.318C43.9185 43.2822 44.2226 43.1849 44.4992 43.0315C44.7759 42.8782 45.0196 42.6719 45.2165 42.4244C45.4133 42.1769 45.5595 41.893 45.6467 41.589C45.7339 41.285 45.7603 40.9668 45.7246 40.6525C45.6888 40.3383 45.5914 40.0342 45.4381 39.7576Z" fill="black"/>
</svg>
