<svg width="57" height="65" viewBox="0 0 57 65" fill="none" xmlns="http://www.w3.org/2000/svg">
<path d="M8.60117 0C9.58552 0.0674966 9.58552 0.0674966 10.6644 0.412636C11.3007 1.19459 11.3007 1.19459 11.833 2.22114C12.0331 2.5982 12.2332 2.97526 12.4394 3.36375C12.6451 3.7686 12.8508 4.17345 13.0628 4.59057C13.2776 4.99915 13.4923 5.40773 13.7136 5.82868C14.1476 6.65533 14.5787 7.48349 15.0069 8.31316C15.7052 9.66311 16.4208 11.0031 17.1403 12.3418C17.7369 13.4523 18.3271 14.5661 18.9171 15.6802C19.166 15.2381 19.4149 14.7961 19.6714 14.3407C20.0043 13.764 20.3374 13.1875 20.6708 12.6112C20.8341 12.3194 20.9974 12.0277 21.1656 11.7271C21.3279 11.4492 21.4901 11.1712 21.6572 10.8849C21.8776 10.4992 21.8776 10.4992 22.1025 10.1057C22.7692 9.32944 23.288 9.23285 24.2813 9.07799C26.9274 12.6598 28.8547 16.6832 30.8835 20.6318C31.7771 20.7248 31.7771 20.7248 32.4581 19.9434C32.7544 19.6296 33.0508 19.3158 33.3561 18.9925C33.6811 18.6556 34.0061 18.3186 34.341 17.9714C35.0269 17.2528 35.7103 16.5317 36.3912 15.8083C36.8803 15.3037 36.8803 15.3037 37.3793 14.7888C37.6766 14.4755 37.9739 14.1621 38.2801 13.8393C39.1362 13.2043 39.1362 13.2043 40.0422 13.2509C40.7868 13.617 40.7868 13.617 41.2526 14.5889C41.741 16.6324 42.0842 18.686 42.4115 20.7607C42.5546 21.6484 42.6981 22.536 42.8419 23.4235C42.9123 23.8594 42.9827 24.2953 43.0553 24.7445C43.2412 25.8667 43.4383 26.9857 43.6446 28.1044C43.7023 28.418 43.7601 28.7317 43.8196 29.0549C43.974 29.8844 44.1308 30.7134 44.2877 31.5425C44.5013 33.0166 44.5388 34.412 44.5005 35.8993C44.8409 35.9334 45.1813 35.9674 45.5321 36.0025C48.9595 36.7369 51.3998 38.5356 53.5785 41.2636C56.1187 45.4512 56.7226 49.6721 55.8158 54.5002C54.5786 58.4364 51.7593 61.4582 48.2626 63.5717C44.3681 65.2962 39.8293 65.4585 35.8094 64.0617C34.1556 63.4034 32.7586 62.4931 31.2961 61.4828C30.8876 61.7211 30.4791 61.9593 30.0582 62.2049C29.5083 62.5147 28.9581 62.8242 28.4077 63.1333C28.1401 63.2907 27.8726 63.4482 27.5969 63.6104C25.6987 64.6629 23.9838 65.3098 21.8055 64.7838C20.0146 64.0069 18.3542 63.0395 16.6734 62.0501C16.1868 61.7697 15.6998 61.4898 15.2124 61.2107C14.4586 60.7784 13.7053 60.3455 12.9536 59.9097C11.2027 58.8953 9.43543 57.9165 7.65501 56.955C6.94406 56.5682 6.94406 56.5682 6.21875 56.1735C5.31025 55.6799 4.39993 55.1896 3.48765 54.7031C3.08044 54.4792 2.67323 54.2553 2.25367 54.0247C1.89456 53.8307 1.53546 53.6367 1.16547 53.4369C0.348455 52.8174 0.348455 52.8174 0.0648624 52.1458C-0.118789 50.7526 0.122359 49.4605 0.355205 48.0881C0.404814 47.7798 0.454423 47.4714 0.505536 47.1537C0.670916 46.1306 0.840945 45.1083 1.01093 44.086C1.12814 43.3657 1.24504 42.6454 1.36164 41.925C1.67088 40.0192 1.98395 38.1141 2.29795 36.2091C2.7929 33.2019 3.28191 30.1937 3.7716 27.1857C3.89113 26.452 4.01083 25.7183 4.13069 24.9846C4.94498 20 5.72926 15.0132 6.44568 10.0135C7.76565 0.835521 7.76565 0.835521 8.60117 0Z" fill="#051923"/>
<path d="M8.60128 0C9.58562 0.0674966 9.58562 0.0674966 10.6645 0.412636C11.3008 1.19459 11.3008 1.19459 11.8331 2.22114C12.0332 2.5982 12.2333 2.97526 12.4395 3.36375C12.6452 3.7686 12.851 4.17345 13.0629 4.59057C13.2777 4.99915 13.4924 5.40773 13.7137 5.82868C14.1477 6.65533 14.5788 7.48349 15.007 8.31316C15.7053 9.66311 16.4209 11.0031 17.1404 12.3418C17.737 13.4523 18.3272 14.5661 18.9172 15.6802C19.1661 15.2381 19.415 14.7961 19.6715 14.3407C20.0044 13.764 20.3375 13.1875 20.6709 12.6112C20.8342 12.3194 20.9975 12.0277 21.1657 11.7271C21.328 11.4492 21.4902 11.1712 21.6573 10.8849C21.8777 10.4992 21.8777 10.4992 22.1026 10.1057C22.7694 9.32944 23.2881 9.23285 24.2814 9.07799C26.092 11.5288 27.5727 14.1691 29.0268 16.8407C29.2206 17.1858 29.4144 17.5309 29.6141 17.8865C29.7905 18.2164 29.9669 18.5463 30.1486 18.8862C30.31 19.1823 30.4715 19.4785 30.6378 19.7837C30.8836 20.6318 30.8836 20.6318 30.5982 21.3927C29.9403 22.4768 29.1696 23.2668 28.2681 24.1598C27.8974 24.529 27.5268 24.8982 27.1449 25.2787C26.739 25.679 26.3331 26.0793 25.9272 26.4796C25.5095 26.8947 25.092 27.31 24.6748 27.7255C23.5753 28.8195 22.4735 29.9112 21.3711 31.0022C19.6137 32.7418 17.859 34.4842 16.1057 36.2279C15.4972 36.8323 14.8873 37.4352 14.2772 38.0379C12.3697 39.9318 10.5206 41.844 8.77176 43.8855C7.63708 45.2071 6.40154 46.4278 5.17124 47.6595C4.91566 47.9201 4.66007 48.1807 4.39674 48.4493C4.1518 48.695 3.90685 48.9407 3.65448 49.1939C3.43517 49.4149 3.21585 49.636 2.98989 49.8637C2.41174 50.3416 2.41174 50.3416 1.58647 50.3416C1.31413 50.8863 1.04179 51.4309 0.761194 51.9921C0.625024 51.9921 0.488854 51.9921 0.348558 51.9921C0.247062 48.9003 0.636758 46.0177 1.14965 42.9722C1.27541 42.2029 1.27541 42.2029 1.40372 41.4182C1.58367 40.3194 1.76462 39.2209 1.94742 38.1226C2.23367 36.4027 2.51619 34.6821 2.79778 32.9614C2.84473 32.6745 2.89169 32.3876 2.94006 32.0919C3.03504 31.5115 3.12999 30.9311 3.22493 30.3507C3.36773 29.4783 3.51091 28.606 3.65414 27.7337C4.57441 22.1225 5.44758 16.5041 6.30197 10.8824C6.4657 9.80529 6.63079 8.72839 6.79599 7.65149C6.84182 7.34571 6.88765 7.03992 6.93486 6.72487C7.85473 0.746546 7.85473 0.746546 8.60128 0Z" fill="#051923"/>
<path d="M49.0394 37.1372C52.6716 39.7935 54.9934 42.6588 56.0542 47.0405C56.4623 51.3873 56.2093 55.2964 53.5832 58.8925C50.6397 62.3444 47.6371 64.4893 43.024 64.9224C37.8061 64.978 34.3472 64.0966 30.5385 60.427C29.256 58.9801 28.3556 57.4714 27.5823 55.7058C27.4323 55.3995 27.2823 55.0931 27.1278 54.7774C26.1572 51.8064 26.2057 47.4459 27.4276 44.5389C27.8902 43.7023 27.8902 43.7023 28.4076 42.9141C28.5826 42.6327 28.7576 42.3514 28.9379 42.0615C30.8276 39.2875 33.623 36.7073 36.8731 35.6672C40.9512 34.9491 45.3883 35.0356 49.0394 37.1372Z" fill="#757574"/>
<path d="M23.0435 9.07812C23.7962 9.09747 23.7962 9.09747 24.694 9.49076C25.2952 10.3486 25.7828 11.1494 26.2672 12.0697C26.4765 12.455 26.4765 12.455 26.6901 12.8481C26.9811 13.3845 27.2702 13.922 27.5573 14.4605C27.9831 15.2455 28.4274 16.0162 28.88 16.786C29.1497 17.2552 29.4194 17.7243 29.6972 18.2077C29.9451 18.6343 30.193 19.0609 30.4484 19.5004C30.8836 20.6319 30.8836 20.6319 30.61 21.4106C29.9377 22.473 29.1619 23.2745 28.268 24.1599C27.8974 24.5291 27.5268 24.8984 27.1449 25.2788C26.739 25.6791 26.333 26.0794 25.9271 26.4798C25.5094 26.8948 25.092 27.3101 24.6747 27.7256C23.5752 28.8197 22.4734 29.9113 21.371 31.0024C19.6136 32.742 17.8589 34.4843 16.1057 36.2281C15.4972 36.8324 14.8872 37.4353 14.2771 38.0381C12.3697 39.9319 10.5206 41.8441 8.77172 43.8856C7.63703 45.2072 6.40149 46.428 5.17119 47.6596C4.91561 47.9202 4.66002 48.1809 4.39669 48.4494C4.15175 48.6951 3.9068 48.9409 3.65443 49.1941C3.43512 49.4151 3.2158 49.6361 2.98984 49.8638C2.41169 50.3417 2.41169 50.3417 1.58642 50.3417C1.31408 50.8864 1.04174 51.4311 0.761147 51.9923C0.624977 51.9923 0.488807 51.9923 0.348511 51.9923C0.348511 51.3114 0.348511 50.6306 0.348511 49.9291C0.62085 49.9291 0.89319 49.9291 1.17378 49.9291C1.28396 49.6402 1.39413 49.3514 1.50764 49.0537C2.03198 47.7863 2.63018 46.5846 3.25953 45.3659C3.38224 45.128 3.50496 44.89 3.63139 44.6449C4.03177 43.8697 4.43374 43.0954 4.83593 42.3211C4.97422 42.0541 5.1125 41.7872 5.25498 41.5121C7.22741 37.7056 9.24382 33.9265 11.3144 30.1723C12.8839 27.318 14.3839 24.431 15.8739 21.5346C21.4968 10.6248 21.4968 10.6248 23.0435 9.07812Z" fill="#051923"/>
<path d="M37.8983 44.9775C39.595 44.9673 41.2916 44.9598 42.9883 44.9548C43.5659 44.9528 44.1435 44.9499 44.721 44.9464C45.5496 44.9414 46.3782 44.9393 47.2068 44.9372C47.9556 44.934 47.9556 44.934 48.7195 44.9307C49.8648 44.9775 49.8648 44.9775 50.2774 45.3901C50.057 54.2759 50.057 54.2759 48.6269 55.706C46.9361 55.7961 45.2441 55.7827 43.5511 55.7825C42.7016 55.7834 41.8523 55.7909 41.0028 55.7987C40.4687 55.7995 39.9347 55.8003 39.3845 55.8011C38.8923 55.8028 38.4 55.8045 37.8929 55.8063C36.6604 55.706 36.6604 55.706 35.4225 54.8808C35.5587 54.3361 35.6949 53.7914 35.8352 53.2302C36.516 53.0941 37.1969 52.9579 37.8983 52.8176C38.0345 52.2729 38.1707 51.7282 38.311 51.167C37.3578 51.167 36.4046 51.167 35.4225 51.167C35.2648 50.4837 35.1279 49.7952 35.0099 49.1039C35.4225 48.6912 35.4225 48.6912 36.2752 48.6509C36.785 48.6581 36.785 48.6581 37.3052 48.6654C37.6461 48.6692 37.9871 48.6729 38.3384 48.6767C38.6017 48.6815 38.865 48.6863 39.1362 48.6912C39.1362 48.2827 39.1362 47.8742 39.1362 47.4533C38.5916 47.3172 38.0469 47.181 37.4857 47.0407C37.6219 46.3598 37.758 45.679 37.8983 44.9775Z" fill="#EFEFEF"/>
<path d="M23.0435 9.07812C23.7962 9.09747 23.7962 9.09747 24.694 9.49076C25.2952 10.3486 25.7828 11.1494 26.2672 12.0697C26.4766 12.455 26.4766 12.455 26.6901 12.8481C26.9812 13.3845 27.2702 13.922 27.5573 14.4605C27.9831 15.2455 28.4274 16.0162 28.88 16.786C29.1497 17.2552 29.4194 17.7243 29.6973 18.2077C29.9451 18.6343 30.193 19.0609 30.4484 19.5004C30.8836 20.6319 30.8836 20.6319 30.6869 21.4604C29.8055 22.6131 28.8206 23.6393 27.7888 24.6551C27.583 24.8642 27.3771 25.0732 27.165 25.2886C25.6239 26.8215 25.6239 26.8215 24.694 26.8215C23.7803 25.2286 22.8819 23.6276 21.9861 22.0246C21.7268 21.573 21.4675 21.1214 21.2003 20.6561C20.957 20.2173 20.7136 19.7785 20.4629 19.3263C20.236 18.9244 20.0091 18.5225 19.7754 18.1084C19.2391 16.6761 19.3446 15.9042 19.7424 14.4424C20.4 13.132 20.4 13.132 21.1866 11.8376C21.4462 11.4052 21.7058 10.9727 21.9732 10.5272C22.6309 9.49076 22.6309 9.49076 23.0435 9.07812Z" fill="#051923"/>
<path d="M42.0246 47.4531C43.7948 47.4531 45.565 47.4531 47.3889 47.4531C47.1986 49.302 47.0148 51.0128 46.5636 52.8174C44.7934 52.8174 43.0232 52.8174 41.1993 52.8174C41.5604 48.8458 41.5604 48.8458 42.0246 47.4531Z" fill="#F9F9F9"/>
<path d="M40.7868 46.6279C43.374 46.6279 45.9613 46.6279 48.6269 46.6279C48.4992 47.7088 48.3716 48.7896 48.2401 49.9032C48.2007 50.2442 48.1614 50.5851 48.1209 50.9363C47.8475 53.1843 47.8475 53.1843 47.389 53.6427C46.835 53.6784 46.2791 53.6869 45.7239 53.683C45.3902 53.6817 45.0564 53.6804 44.7125 53.679C44.3617 53.6755 44.0109 53.6721 43.6495 53.6685C43.2971 53.6667 42.9447 53.6648 42.5816 53.6629C41.7083 53.658 40.8349 53.6506 39.9615 53.6427C40.2339 51.3279 40.5062 49.013 40.7868 46.6279ZM42.0247 47.4532C41.8886 48.0319 41.7524 48.6106 41.6121 49.2069C41.5355 49.5324 41.4589 49.858 41.38 50.1934C41.1493 51.2724 41.1493 51.2724 41.1995 52.8175C42.9697 52.8175 44.7399 52.8175 46.5637 52.8175C46.6999 52.2387 46.8361 51.66 46.9764 51.0638C47.053 50.7382 47.1295 50.4127 47.2085 50.0773C47.4392 48.9983 47.4392 48.9983 47.389 47.4532C45.6188 47.4532 43.8486 47.4532 42.0247 47.4532Z" fill="#707070"/>
<path d="M40.7868 46.6279C41.1953 46.7641 41.6038 46.9003 42.0247 47.0406C41.6271 51.3972 41.6271 51.3972 41.1995 53.2301C40.7909 53.2301 40.3824 53.2301 39.9615 53.2301C40.2339 51.0514 40.5062 48.8727 40.7868 46.6279Z" fill="#7D7D7D"/>
<path d="M32.9467 53.23C33.7637 53.4342 33.7637 53.4342 34.5972 53.6426C34.4611 54.1873 34.3249 54.732 34.1846 55.2932C33.6399 55.157 33.0952 55.0208 32.5341 54.8805C32.6702 54.3358 32.8064 53.7912 32.9467 53.23Z" fill="#FBFBFB"/>
</svg>
