<svg width="77" height="65" viewBox="0 0 77 65" fill="none" xmlns="http://www.w3.org/2000/svg">
<path d="M71.0769 0H5.92308C4.35218 0 2.84562 0.622563 1.73483 1.73073C0.624036 2.8389 0 4.3419 0 5.90909V59.0909C0 60.6581 0.624036 62.1611 1.73483 63.2693C2.84562 64.3774 4.35218 65 5.92308 65H71.0769C72.6478 65 74.1544 64.3774 75.2652 63.2693C76.376 62.1611 77 60.6581 77 59.0909V5.90909C77 4.3419 76.376 2.8389 75.2652 1.73073C74.1544 0.622563 72.6478 0 71.0769 0ZM19.8645 49.3631C19.3088 49.9175 18.5551 50.2289 17.7692 50.2289C16.9833 50.2289 16.2296 49.9175 15.6739 49.3631C15.1182 48.8087 14.806 48.0568 14.806 47.2727C14.806 46.4887 15.1182 45.7368 15.6739 45.1824L28.39 32.5L15.6739 19.8176C15.1182 19.2632 14.806 18.5113 14.806 17.7273C14.806 16.9432 15.1182 16.1913 15.6739 15.6369C16.2296 15.0825 16.9833 14.7711 17.7692 14.7711C18.5551 14.7711 19.3088 15.0825 19.8645 15.6369L34.6722 30.4097C34.9476 30.6841 35.166 31.0099 35.315 31.3686C35.4641 31.7273 35.5408 32.1117 35.5408 32.5C35.5408 32.8883 35.4641 33.2727 35.315 33.6314C35.166 33.9901 34.9476 34.3159 34.6722 34.5903L19.8645 49.3631ZM62.1923 50.2273H38.5C37.7146 50.2273 36.9613 49.916 36.4059 49.3619C35.8505 48.8078 35.5385 48.0563 35.5385 47.2727C35.5385 46.4891 35.8505 45.7376 36.4059 45.1835C36.9613 44.6295 37.7146 44.3182 38.5 44.3182H62.1923C62.9778 44.3182 63.731 44.6295 64.2864 45.1835C64.8418 45.7376 65.1538 46.4891 65.1538 47.2727C65.1538 48.0563 64.8418 48.8078 64.2864 49.3619C63.731 49.916 62.9778 50.2273 62.1923 50.2273Z" fill="#051923"/>
</svg>
