<svg width="120" height="120" viewBox="0 0 120 120" fill="none" xmlns="http://www.w3.org/2000/svg">
<path d="M85 85C85 87.9688 84.3063 90.725 83.0938 92.5687C82.6565 93.3282 82.0218 93.9552 81.2571 94.3833C80.4923 94.8113 79.626 95.0244 78.75 95C72.675 95 72.5 86.025 72.5 85C72.5 82.0375 73.1937 79.275 74.4062 77.4313C74.8435 76.6718 75.4782 76.0448 76.2429 75.6167C77.0077 75.1887 77.874 74.9756 78.75 75C84.825 75 85 83.975 85 85ZM120 10V110C120 112.652 118.946 115.196 117.071 117.071C115.196 118.946 112.652 120 110 120H10C7.34784 120 4.8043 118.946 2.92893 117.071C1.05357 115.196 0 112.652 0 110V10C0 7.34784 1.05357 4.8043 2.92893 2.92893C4.8043 1.05357 7.34784 0 10 0H110C112.652 0 115.196 1.05357 117.071 2.92893C118.946 4.8043 120 7.34784 120 10ZM68.025 27.2375C68.3185 27.8255 68.725 28.3498 69.2214 28.7805C69.7177 29.2112 70.294 29.5399 70.9174 29.7477C71.5408 29.9555 72.1991 30.0384 72.8546 29.9916C73.5101 29.9448 74.1499 29.7693 74.7375 29.475L77.5 28.0875V50C77.5 51.3261 78.0268 52.5979 78.9645 53.5355C79.9021 54.4732 81.1739 55 82.5 55C83.8261 55 85.0979 54.4732 86.0355 53.5355C86.9732 52.5979 87.5 51.3261 87.5 50V20C87.5006 19.1473 87.2831 18.3086 86.8682 17.5636C86.4533 16.8186 85.8548 16.1921 85.1295 15.7437C84.4042 15.2952 83.5763 15.0397 82.7244 15.0015C81.8726 14.9632 81.0251 15.1434 80.2625 15.525L70.2625 20.525C69.6745 20.8185 69.1502 21.225 68.7195 21.7213C68.2888 22.2177 67.9601 22.794 67.7523 23.4174C67.5445 24.0409 67.4616 24.6991 67.5084 25.3546C67.5552 26.0101 67.7307 26.6499 68.025 27.2375ZM50 70C50.0006 69.1473 49.7831 68.3086 49.3682 67.5636C48.9533 66.8186 48.3548 66.1921 47.6295 65.7437C46.9042 65.2952 46.0763 65.0397 45.2244 65.0015C44.3726 64.9632 43.5251 65.1434 42.7625 65.525L32.7625 70.525C31.5757 71.1184 30.6732 72.159 30.2535 73.4178C29.8339 74.6767 29.9316 76.0507 30.525 77.2375C31.1184 78.4243 32.159 79.3268 33.4179 79.7465C34.6767 80.1661 36.0507 80.0684 37.2375 79.475L40 78.0875V100C40 101.326 40.5268 102.598 41.4645 103.536C42.4021 104.473 43.6739 105 45 105C46.3261 105 47.5979 104.473 48.5355 103.536C49.4732 102.598 50 101.326 50 100V70ZM60 35C60 23.225 53.3187 15 43.75 15C34.1813 15 27.5 23.225 27.5 35C27.5 46.775 34.1813 55 43.75 55C53.3187 55 60 46.775 60 35ZM95 85C95 73.225 88.3187 65 78.75 65C69.1813 65 62.5 73.225 62.5 85C62.5 96.775 69.1813 105 78.75 105C88.3187 105 95 96.775 95 85ZM43.75 25C42.8687 24.9699 41.9959 25.1803 41.2252 25.6086C40.4544 26.0369 39.8148 26.667 39.375 27.4312C38.1625 29.3062 37.5 32.0375 37.5 35C37.5 36.025 37.675 45 43.75 45C44.6313 45.0301 45.5041 44.8197 46.2748 44.3914C47.0456 43.9631 47.6852 43.333 48.125 42.5687C49.3375 40.6937 50 37.9688 50 35C50 33.975 49.825 25 43.75 25Z" fill="black"/>
</svg>
