<svg width="274" height="250" viewBox="0 0 274 250" fill="none" xmlns="http://www.w3.org/2000/svg">
<g clip-path="url(#clip0_1077_808)">
<path d="M236.135 22.9874L6.5464 89.9033L12.6275 110.782L242.216 43.8664L236.135 22.9874Z" fill="#3F3D56"/>
<path d="M33.976 185.808L0.136567 69.6237C-0.114309 68.7623 -0.0128369 67.8365 0.418646 67.05C0.850129 66.2634 1.57628 65.6805 2.43737 65.4296L226.46 0.135792C227.321 -0.11433 228.246 -0.0124779 229.032 0.419002C229.818 0.850481 230.401 1.57633 230.652 2.43722L260.632 105.368L259.704 105.639L229.725 2.70764C229.545 2.09298 229.128 1.57481 228.567 1.26666C228.005 0.958503 227.345 0.88549 226.73 1.06362L2.70764 66.3574C2.09257 66.5367 1.57389 66.953 1.26569 67.5149C0.957491 68.0767 0.885011 68.738 1.0642 69.3533L34.9037 185.538L33.976 185.808Z" fill="#3F3D56"/>
<path d="M211.048 105.847C210.368 105.846 209.707 105.625 209.164 105.217C208.62 104.809 208.223 104.236 208.032 103.584L202.356 84.0966C202.124 83.2968 202.219 82.4376 202.619 81.7075C203.02 80.9774 203.694 80.436 204.493 80.2021L223.973 74.5244C224.772 74.2924 225.631 74.3871 226.361 74.7878C227.091 75.1885 227.632 75.8625 227.866 76.6619L233.542 96.1489C233.774 96.9487 233.679 97.8079 233.278 98.538C232.878 99.2681 232.204 99.8094 231.405 100.043L211.925 105.721C211.64 105.804 211.345 105.847 211.048 105.847Z" fill="#051923"/>
<path d="M33.453 69.9833C33.3946 69.783 33.3252 69.5862 33.2451 69.3937C32.7005 68.0712 31.6865 66.9968 30.398 66.3768C29.1095 65.7569 27.6375 65.6351 26.2647 66.0349C24.8919 66.4347 23.7153 67.3279 22.9608 68.5429C22.2064 69.7578 21.9274 71.2089 22.1775 72.6171C22.2126 72.8226 22.2594 73.0259 22.3176 73.226C22.6704 74.4306 23.4037 75.4884 24.4078 76.2412C25.412 76.9939 26.6328 77.401 27.8876 77.4014C28.4355 77.4027 28.9806 77.3245 29.506 77.1695C30.9809 76.7384 32.2247 75.7398 32.9646 74.3926C33.7045 73.0455 33.8801 71.4598 33.453 69.9833ZM29.2355 76.2416C28.0055 76.5987 26.6842 76.4533 25.5612 75.8373C24.4382 75.2212 23.6053 74.1848 23.2451 72.9554C23.1885 72.7551 23.1433 72.5518 23.1097 72.3465C22.9285 71.1862 23.176 69.9996 23.8058 69.0086C24.4357 68.0176 25.4048 67.2901 26.532 66.962C27.6592 66.6339 28.8673 66.7277 29.9303 67.226C30.9933 67.7242 31.8386 68.5927 32.3079 69.6691C32.3954 69.8581 32.4681 70.0536 32.5254 70.2539C32.8819 71.4843 32.7357 72.806 32.1189 73.9287C31.502 75.0513 30.465 75.8832 29.2355 76.2416Z" fill="#051923"/>
<path d="M19.2341 74.1246C18.925 73.0625 18.9547 71.9304 19.3191 70.886C19.6835 69.8415 20.3645 68.9368 21.2672 68.2978C20.4215 68.2566 19.5781 68.4181 18.8075 68.7689C18.0368 69.1198 17.3611 69.6497 16.8366 70.3147C16.3121 70.9797 15.9541 71.7604 15.7923 72.5918C15.6305 73.4232 15.6697 74.2813 15.9066 75.0945C16.1434 75.9077 16.5711 76.6525 17.154 77.2669C17.7368 77.8813 18.458 78.3474 19.2575 78.6265C20.0569 78.9056 20.9114 78.9896 21.7499 78.8715C22.5883 78.7533 23.3864 78.4364 24.0776 77.9472C22.9731 77.8933 21.9129 77.496 21.0447 76.8108C20.1766 76.1257 19.5436 75.1867 19.2341 74.1246Z" fill="#051923"/>
<path d="M169.412 98.0757C169.309 97.7059 169.134 97.36 168.898 97.0578C168.661 96.7555 168.367 96.5029 168.033 96.3144C167.699 96.1259 167.33 96.0051 166.949 95.9591C166.569 95.913 166.182 95.9426 165.813 96.046L133.74 105.02L130.285 105.987H151.977L155.431 105.02L167.387 101.676C168.133 101.467 168.765 100.97 169.144 100.295C169.524 99.6198 169.62 98.8217 169.412 98.0757Z" fill="#CCCCCC"/>
<path d="M146.721 91.3728C146.512 90.6269 146.015 89.9945 145.34 89.6148C144.665 89.2351 143.867 89.1391 143.121 89.3479L94.9951 102.812C94.3226 103.002 93.7403 103.427 93.3532 104.009C92.9661 104.591 92.7997 105.293 92.8839 105.987H105.343L108.802 105.02L144.696 94.978C145.442 94.7678 146.074 94.2701 146.454 93.5942C146.833 92.9183 146.929 92.1193 146.721 91.3728Z" fill="#CCCCCC"/>
<path d="M270.618 105.019H37.2808C36.3842 105.02 35.5247 105.377 34.8907 106.011C34.2567 106.645 33.9001 107.505 33.8991 108.402V246.617C33.9001 247.514 34.2567 248.374 34.8906 249.008C35.5246 249.642 36.3842 249.999 37.2808 250H270.618C271.515 249.999 272.374 249.642 273.008 249.008C273.642 248.374 273.999 247.514 274 246.617V108.402C273.999 107.505 273.642 106.645 273.008 106.011C272.374 105.377 271.515 105.02 270.618 105.019ZM273.034 246.617C273.034 247.258 272.779 247.872 272.326 248.325C271.873 248.778 271.259 249.033 270.618 249.033H37.2808C36.6402 249.033 36.026 248.778 35.573 248.325C35.1201 247.872 34.8655 247.258 34.8653 246.617V108.402C34.8656 107.761 35.1201 107.147 35.5731 106.694C36.026 106.241 36.6402 105.986 37.2808 105.986H270.618C271.259 105.986 271.873 106.241 272.326 106.694C272.779 107.147 273.034 107.761 273.034 108.402V246.617Z" fill="#3F3D56"/>
<path d="M59.9848 123.868C58.8382 123.868 57.7174 123.527 56.764 122.89C55.8107 122.253 55.0676 121.347 54.6288 120.288C54.1901 119.228 54.0753 118.062 54.299 116.937C54.5226 115.812 55.0748 114.779 55.8855 113.968C56.6963 113.157 57.7292 112.604 58.8538 112.38C59.9783 112.157 61.144 112.272 62.2033 112.71C63.2626 113.149 64.168 113.893 64.805 114.846C65.442 115.8 65.782 116.921 65.782 118.068C65.7802 119.606 65.1689 121.08 64.0821 122.167C62.9952 123.254 61.5217 123.866 59.9848 123.868ZM59.9848 113.236C59.0293 113.236 58.0953 113.519 57.3008 114.05C56.5063 114.581 55.8872 115.336 55.5215 116.219C55.1559 117.102 55.0602 118.074 55.2466 119.011C55.433 119.949 55.8931 120.81 56.5687 121.486C57.2444 122.161 58.1052 122.622 59.0423 122.808C59.9794 122.995 60.9508 122.899 61.8335 122.533C62.7163 122.167 63.4707 121.548 64.0016 120.753C64.5324 119.958 64.8158 119.024 64.8158 118.068C64.8143 116.787 64.3049 115.559 63.3992 114.653C62.4935 113.747 61.2656 113.237 59.9848 113.236Z" fill="#051923"/>
<path d="M50.9739 118.068C50.9741 116.962 51.3192 115.884 51.9611 114.983C52.603 114.082 53.5098 113.404 54.5551 113.043C53.7547 112.767 52.8999 112.686 52.0619 112.807C51.2238 112.928 50.4269 113.248 49.7374 113.74C49.0479 114.231 48.4859 114.881 48.0981 115.634C47.7103 116.387 47.5079 117.221 47.5079 118.068C47.5079 118.915 47.7103 119.75 48.0981 120.503C48.4859 121.256 49.0479 121.905 49.7374 122.397C50.4269 122.889 51.2238 123.209 52.0619 123.33C52.8999 123.451 53.7547 123.37 54.5551 123.094C53.5098 122.733 52.603 122.055 51.9611 121.154C51.3192 120.253 50.9741 119.175 50.9739 118.068Z" fill="#051923"/>
<path d="M83.4846 186.586C82.3318 186.584 81.2267 186.126 80.4116 185.31C79.5965 184.495 79.138 183.389 79.1367 182.236V169.188C79.1367 168.034 79.5947 166.928 80.4101 166.112C81.2255 165.297 82.3314 164.838 83.4846 164.838C84.6377 164.838 85.7436 165.297 86.559 166.112C87.3744 166.928 87.8325 168.034 87.8325 169.188V182.236C87.8311 183.389 87.3726 184.495 86.5575 185.31C85.7424 186.125 84.6373 186.584 83.4846 186.586Z" fill="#051923"/>
<path d="M95.0789 186.586C93.9262 186.584 92.8211 186.126 92.006 185.31C91.1909 184.495 90.7324 183.389 90.731 182.236V169.188C90.731 168.034 91.1891 166.928 92.0045 166.112C92.8199 165.297 93.9258 164.838 95.0789 164.838C96.2321 164.838 97.338 165.297 98.1534 166.112C98.9687 166.928 99.4268 168.034 99.4268 169.188V182.236C99.4255 183.389 98.967 184.495 98.1519 185.31C97.3368 186.125 96.2317 186.584 95.0789 186.586Z" fill="#051923"/>
<path d="M106.673 186.586C105.521 186.584 104.415 186.126 103.6 185.31C102.785 184.495 102.327 183.389 102.325 182.236V169.188C102.325 168.034 102.784 166.928 103.599 166.112C104.414 165.297 105.52 164.838 106.673 164.838C107.826 164.838 108.932 165.297 109.748 166.112C110.563 166.928 111.021 168.034 111.021 169.188V182.236C111.02 183.389 110.561 184.495 109.746 185.31C108.931 186.125 107.826 186.584 106.673 186.586Z" fill="#051923"/>
<path d="M124.548 186.586C123.395 186.584 122.29 186.126 121.475 185.31C120.66 184.495 120.201 183.389 120.2 182.236V169.188C120.2 168.034 120.658 166.928 121.474 166.112C122.289 165.297 123.395 164.838 124.548 164.838C125.701 164.838 126.807 165.297 127.622 166.112C128.438 166.928 128.896 168.034 128.896 169.188V182.236C128.895 183.389 128.436 184.495 127.621 185.31C126.806 186.125 125.701 186.584 124.548 186.586Z" fill="#051923"/>
<path d="M136.142 186.586C134.99 186.584 133.885 186.126 133.069 185.31C132.254 184.495 131.796 183.389 131.795 182.236V169.188C131.795 168.034 132.253 166.928 133.068 166.112C133.883 165.297 134.989 164.838 136.142 164.838C137.296 164.838 138.401 165.297 139.217 166.112C140.032 166.928 140.49 168.034 140.49 169.188V182.236C140.489 183.389 140.031 184.495 139.215 185.31C138.4 186.125 137.295 186.584 136.142 186.586Z" fill="#051923"/>
<path d="M147.737 186.586C146.584 186.584 145.479 186.126 144.664 185.31C143.849 184.495 143.39 183.389 143.389 182.236V169.188C143.389 168.034 143.847 166.928 144.662 166.112C145.478 165.297 146.584 164.838 147.737 164.838C148.89 164.838 149.996 165.297 150.811 166.112C151.627 166.928 152.085 168.034 152.085 169.188V182.236C152.083 183.389 151.625 184.495 150.81 185.31C149.995 186.125 148.89 186.584 147.737 186.586Z" fill="#051923"/>
<path d="M165.612 186.586C164.459 186.584 163.354 186.126 162.539 185.31C161.723 184.495 161.265 183.389 161.264 182.236V169.188C161.264 168.034 161.722 166.928 162.537 166.112C163.352 165.297 164.458 164.838 165.612 164.838C166.765 164.838 167.871 165.297 168.686 166.112C169.501 166.928 169.959 168.034 169.959 169.188V182.236C169.958 183.389 169.5 184.495 168.684 185.31C167.869 186.125 166.764 186.584 165.612 186.586Z" fill="#051923"/>
<path d="M177.206 186.586C176.053 186.584 174.948 186.126 174.133 185.31C173.318 184.495 172.859 183.389 172.858 182.236V169.188C172.858 168.034 173.316 166.928 174.132 166.112C174.947 165.297 176.053 164.838 177.206 164.838C178.359 164.838 179.465 165.297 180.28 166.112C181.096 166.928 181.554 168.034 181.554 169.188V182.236C181.553 183.389 181.094 184.495 180.279 185.31C179.464 186.125 178.359 186.584 177.206 186.586Z" fill="#051923"/>
<path d="M188.8 186.586C187.648 186.584 186.542 186.126 185.727 185.31C184.912 184.495 184.454 183.389 184.452 182.236V169.188C184.452 168.034 184.911 166.928 185.726 166.112C186.541 165.297 187.647 164.838 188.8 164.838C189.953 164.838 191.059 165.297 191.875 166.112C192.69 166.928 193.148 168.034 193.148 169.188V182.236C193.147 183.389 192.688 184.495 191.873 185.31C191.058 186.125 189.953 186.584 188.8 186.586Z" fill="#051923"/>
<path d="M206.675 186.586C205.522 186.584 204.417 186.126 203.602 185.31C202.787 184.495 202.328 183.389 202.327 182.236V169.188C202.327 168.034 202.785 166.928 203.601 166.112C204.416 165.297 205.522 164.838 206.675 164.838C207.828 164.838 208.934 165.297 209.749 166.112C210.565 166.928 211.023 168.034 211.023 169.188V182.236C211.022 183.389 210.563 184.495 209.748 185.31C208.933 186.125 207.828 186.584 206.675 186.586Z" fill="#051923"/>
<path d="M218.269 186.586C217.117 186.584 216.012 186.126 215.196 185.31C214.381 184.495 213.923 183.389 213.922 182.236V169.188C213.922 168.034 214.38 166.928 215.195 166.112C216.01 165.297 217.116 164.838 218.269 164.838C219.423 164.838 220.528 165.297 221.344 166.112C222.159 166.928 222.617 168.034 222.617 169.188V182.236C222.616 183.389 222.157 184.495 221.342 185.31C220.527 186.125 219.422 186.584 218.269 186.586Z" fill="#051923"/>
<path d="M229.864 186.586C228.711 186.584 227.606 186.126 226.791 185.31C225.976 184.495 225.517 183.389 225.516 182.236V169.188C225.516 168.034 225.974 166.928 226.789 166.112C227.605 165.297 228.711 164.838 229.864 164.838C231.017 164.838 232.123 165.297 232.938 166.112C233.754 166.928 234.212 168.034 234.212 169.188V182.236C234.21 183.389 233.752 184.495 232.937 185.31C232.122 186.125 231.017 186.584 229.864 186.586Z" fill="#051923"/>
<path d="M112.962 234.993H50.4297C49.6549 234.993 48.9118 234.685 48.3639 234.137C47.816 233.589 47.5082 232.846 47.5082 232.07C47.5082 231.295 47.816 230.552 48.3639 230.004C48.9118 229.456 49.6549 229.148 50.4297 229.148H112.962C113.737 229.148 114.48 229.456 115.028 230.004C115.576 230.552 115.884 231.295 115.884 232.07C115.884 232.846 115.576 233.589 115.028 234.137C114.48 234.685 113.737 234.993 112.962 234.993Z" fill="#E6E6E6"/>
<path d="M92.9137 222.428H70.4784C69.7035 222.428 68.9605 222.12 68.4126 221.572C67.8647 221.024 67.5569 220.281 67.5569 219.506C67.5569 218.73 67.8647 217.987 68.4126 217.439C68.9605 216.891 69.7035 216.583 70.4784 216.583H92.9137C93.6885 216.583 94.4316 216.891 94.9795 217.439C95.5274 217.987 95.8351 218.73 95.8351 219.506C95.8351 220.281 95.5274 221.024 94.9795 221.572C94.4316 222.12 93.6885 222.428 92.9137 222.428Z" fill="#E6E6E6"/>
<path d="M272.86 133.909H34.6914V134.876H272.86V133.909Z" fill="#3F3D56"/>
</g>
<defs>
<clipPath id="clip0_1077_808">
<rect width="274" height="250" fill="white"/>
</clipPath>
</defs>
</svg>
