<svg width="237" height="350" viewBox="0 0 237 350" fill="none" xmlns="http://www.w3.org/2000/svg">
<path d="M80.5556 117.236H54.5609C52.5185 117.236 50.8474 118.907 50.8474 120.95V146.944C50.8474 148.987 52.5185 150.658 54.5609 150.658H80.5556C82.5981 150.658 84.2692 148.987 84.2692 146.944V120.95C84.2692 118.907 82.5981 117.236 80.5556 117.236ZM59.5371 139.48H56.4177V128.377H59.5928C61.9694 128.377 62.7678 130.289 62.7678 131.552V136.305C62.7678 137.568 61.988 139.48 59.5371 139.48ZM68.2639 132.944V134.931H66.0729V137.512H69.6564V139.499H65.4787C64.736 139.517 64.1047 138.923 64.0861 138.18V129.769C64.0676 129.027 64.6617 128.395 65.4044 128.377H69.6379V130.363H66.0729V132.944H68.2639ZM76.6193 138.088C75.728 140.149 74.1498 139.74 73.4442 138.088L70.8448 128.377H73.0357L75.0225 136.008L77.0092 128.377H79.2002L76.6193 138.088Z" fill="black"/>
<path d="M59.7042 130.456H58.5344V137.456H59.7042C59.9641 137.456 60.2241 137.363 60.484 137.159C60.744 136.974 60.8739 136.676 60.8739 136.287V131.607C60.8739 131.218 60.744 130.92 60.484 130.735C60.2241 130.549 59.9641 130.456 59.7042 130.456Z" fill="black"/>
<path d="M182.427 41.3131V40.3848H132.758V41.3131H182.427Z" fill="#3F3D56"/>
<path d="M117.974 41.3131V40.3848H74.2704V41.3131H117.974Z" fill="#3F3D56"/>
<path d="M67.3076 110.942V38.9919H66.3792V110.942H67.3076Z" fill="#3F3D56"/>
<path d="M54.7745 9.28385V8.35547L15.3183 8.35547V9.28385L54.7745 9.28385Z" fill="#3F3D56"/>
<path d="M8.35559 125.796L8.35559 16.7109H7.42721L7.42721 125.796H8.35559Z" fill="#3F3D56"/>
<path d="M213.992 216.777V215.849H167.109V216.777H213.992Z" fill="#3F3D56"/>
<path d="M159.682 208.886V140.634H158.753V208.886H159.682Z" fill="#3F3D56"/>
<path d="M152.254 133.687V132.759H89.5886V133.687H152.254Z" fill="#3F3D56"/>
<path d="M117.44 40.849C117.44 39.2883 117.903 37.7626 118.77 36.4649C119.637 35.1672 120.87 34.1557 122.312 33.5585C123.754 32.9612 125.34 32.8049 126.871 33.1094C128.402 33.4139 129.808 34.1655 130.911 35.2691C132.015 36.3727 132.767 37.7788 133.071 39.3095C133.376 40.8403 133.219 42.4269 132.622 43.8689C132.025 45.3108 131.013 46.5433 129.716 47.4104C128.418 48.2775 126.892 48.7403 125.332 48.7403C123.239 48.7379 121.234 47.9058 119.754 46.4264C118.275 44.947 117.443 42.9412 117.44 40.849ZM132.294 40.849C132.294 39.4719 131.886 38.1257 131.121 36.9807C130.356 35.8356 129.268 34.9432 127.996 34.4162C126.724 33.8892 125.324 33.7513 123.973 34.0199C122.622 34.2886 121.382 34.9517 120.408 35.9255C119.434 36.8993 118.771 38.14 118.502 39.4906C118.234 40.8413 118.372 42.2413 118.899 43.5136C119.426 44.7859 120.318 45.8734 121.463 46.6384C122.608 47.4035 123.954 47.8119 125.332 47.8119C127.178 47.8098 128.947 47.0756 130.253 45.7702C131.558 44.4649 132.292 42.6951 132.294 40.849Z" fill="#3F3D56"/>
<path d="M-3.33786e-05 9.28384C-3.33786e-05 7.7231 0.462769 6.1974 1.32987 4.89969C2.19697 3.60198 3.42943 2.59054 4.87137 1.99327C6.31331 1.396 7.89997 1.23972 9.43072 1.54421C10.9615 1.84869 12.3676 2.60027 13.4712 3.70388C14.5748 4.8075 15.3264 6.21357 15.6308 7.74432C15.9353 9.27508 15.779 10.8618 15.1818 12.3037C14.5845 13.7456 13.5731 14.9781 12.2754 15.8452C10.9777 16.7123 9.45196 17.1751 7.89122 17.1751C5.79905 17.1728 3.79323 16.3406 2.31384 14.8612C0.834449 13.3818 0.00230122 11.376 -3.33786e-05 9.28384ZM14.8541 9.28384C14.8541 7.90672 14.4457 6.56051 13.6806 5.41548C12.9155 4.27044 11.8281 3.37798 10.5558 2.85098C9.28349 2.32398 7.88348 2.18609 6.53281 2.45476C5.18215 2.72342 3.94149 3.38656 2.96771 4.36034C1.99394 5.33411 1.3308 6.57479 1.06213 7.92545C0.793469 9.27611 0.931353 10.6761 1.45836 11.9484C1.98536 13.2207 2.87782 14.3082 4.02285 15.0733C5.16789 15.8383 6.51409 16.2467 7.89122 16.2467C9.73726 16.2447 11.5071 15.5104 12.8124 14.2051C14.1178 12.8997 14.852 11.1299 14.8541 9.28384Z" fill="#3F3D56"/>
<path d="M59.4161 41.313C59.4161 45.4149 62.7413 48.7401 66.8432 48.7401C70.9451 48.7401 74.2703 45.4149 74.2703 41.313C74.2703 37.2112 70.9451 33.886 66.8432 33.886C62.7413 33.886 59.4161 37.2112 59.4161 41.313Z" fill="#051923"/>
<path d="M125.796 310.08V233.024H124.867V310.08H125.796Z" fill="#3F3D56"/>
<path d="M117.974 226.061V225.133H74.2704V226.061H117.974Z" fill="#3F3D56"/>
<path d="M67.3076 217.706V155.969H66.3792V217.706H67.3076Z" fill="#3F3D56"/>
<path d="M63.1298 328.647L63.1298 264.589H62.2014L62.2014 328.647H63.1298Z" fill="#3F3D56"/>
<path d="M54.7745 258.09V257.162H15.3183V258.09H54.7745Z" fill="#3F3D56"/>
<path d="M8.35559 249.735L8.35559 140.65H7.42721L7.42721 249.735H8.35559Z" fill="#3F3D56"/>
<path d="M44.0979 133.687V132.759H15.318V133.687H44.0979Z" fill="#3F3D56"/>
<path d="M117.904 225.597C117.904 229.699 121.23 233.024 125.331 233.024C129.433 233.024 132.759 229.699 132.759 225.597C132.759 221.495 129.433 218.17 125.331 218.17C121.23 218.17 117.904 221.495 117.904 225.597Z" fill="#051923"/>
<path d="M151.79 216.313C151.79 214.752 152.253 213.227 153.12 211.929C153.987 210.631 155.22 209.62 156.662 209.023C158.104 208.425 159.69 208.269 161.221 208.574C162.752 208.878 164.158 209.63 165.261 210.733C166.365 211.837 167.117 213.243 167.421 214.774C167.726 216.304 167.569 217.891 166.972 219.333C166.375 220.775 165.363 222.007 164.066 222.874C162.768 223.742 161.242 224.204 159.681 224.204C157.589 224.202 155.584 223.37 154.104 221.891C152.625 220.411 151.793 218.405 151.79 216.313ZM166.644 216.313C166.644 214.936 166.236 213.59 165.471 212.445C164.706 211.3 163.618 210.407 162.346 209.88C161.074 209.353 159.674 209.215 158.323 209.484C156.972 209.753 155.732 210.416 154.758 211.39C153.784 212.363 153.121 213.604 152.852 214.955C152.584 216.305 152.722 217.705 153.249 218.978C153.776 220.25 154.668 221.337 155.813 222.103C156.958 222.868 158.304 223.276 159.681 223.276C161.528 223.274 163.297 222.54 164.603 221.234C165.908 219.929 166.642 218.159 166.644 216.313Z" fill="#3F3D56"/>
<path d="M151.79 133.223C151.79 131.662 152.253 130.137 153.12 128.839C153.987 127.541 155.22 126.53 156.662 125.932C158.104 125.335 159.69 125.179 161.221 125.483C162.752 125.788 164.158 126.539 165.261 127.643C166.365 128.747 167.117 130.153 167.421 131.684C167.726 133.214 167.569 134.801 166.972 136.243C166.375 137.685 165.363 138.917 164.066 139.784C162.768 140.651 161.242 141.114 159.681 141.114C157.589 141.112 155.584 140.28 154.104 138.8C152.625 137.321 151.793 135.315 151.79 133.223ZM166.644 133.223C166.644 131.846 166.236 130.5 165.471 129.355C164.706 128.21 163.618 127.317 162.346 126.79C161.074 126.263 159.674 126.125 158.323 126.394C156.972 126.663 155.732 127.326 154.758 128.3C153.784 129.273 153.121 130.514 152.852 131.865C152.584 133.215 152.722 134.615 153.249 135.888C153.776 137.16 154.668 138.247 155.813 139.012C156.958 139.778 158.304 140.186 159.681 140.186C161.528 140.184 163.297 139.45 164.603 138.144C165.908 136.839 166.642 135.069 166.644 133.223Z" fill="#3F3D56"/>
<path d="M54.3099 257.162C54.3099 255.601 54.7727 254.076 55.6398 252.778C56.5069 251.48 57.7394 250.469 59.1813 249.871C60.6232 249.274 62.2099 249.118 63.7407 249.422C65.2714 249.727 66.6775 250.478 67.7811 251.582C68.8847 252.686 69.6363 254.092 69.9408 255.622C70.2453 257.153 70.089 258.74 69.4917 260.182C68.8944 261.624 67.883 262.856 66.5853 263.723C65.2876 264.59 63.7619 265.053 62.2012 265.053C60.109 265.051 58.1032 264.219 56.6238 262.739C55.1444 261.26 54.3122 259.254 54.3099 257.162ZM69.164 257.162C69.164 255.785 68.7556 254.439 67.9906 253.294C67.2255 252.149 66.138 251.256 64.8657 250.729C63.5934 250.202 62.1934 250.064 60.8428 250.333C59.4921 250.602 58.2514 251.265 57.2777 252.239C56.3039 253.212 55.6407 254.453 55.3721 255.804C55.1034 257.154 55.2413 258.554 55.7683 259.827C56.2953 261.099 57.1878 262.186 58.3328 262.951C59.4778 263.717 60.824 264.125 62.2012 264.125C64.0472 264.123 65.817 263.389 67.1224 262.083C68.4277 260.778 69.162 259.008 69.164 257.162Z" fill="#3F3D56"/>
<path d="M0.464235 257.162C0.464235 261.264 3.78944 264.589 7.8913 264.589C11.9932 264.589 15.3184 261.264 15.3184 257.162C15.3184 253.06 11.9932 249.735 7.8913 249.735C3.78944 249.735 0.464235 253.06 0.464235 257.162Z" fill="#051923"/>
<path d="M-3.33786e-05 133.223C-3.33786e-05 131.662 0.462769 130.137 1.32987 128.839C2.19697 127.541 3.42943 126.53 4.87137 125.932C6.31331 125.335 7.89997 125.179 9.43072 125.483C10.9615 125.788 12.3676 126.539 13.4712 127.643C14.5748 128.747 15.3264 130.153 15.6308 131.684C15.9353 133.214 15.779 134.801 15.1818 136.243C14.5845 137.685 13.5731 138.917 12.2754 139.784C10.9777 140.651 9.45196 141.114 7.89122 141.114C5.79905 141.112 3.79323 140.28 2.31384 138.8C0.834449 137.321 0.00230122 135.315 -3.33786e-05 133.223ZM14.8541 133.223C14.8541 131.846 14.4457 130.5 13.6806 129.355C12.9155 128.21 11.8281 127.317 10.5558 126.79C9.28349 126.263 7.88348 126.125 6.53281 126.394C5.18215 126.663 3.94149 127.326 2.96771 128.3C1.99394 129.273 1.3308 130.514 1.06213 131.865C0.793469 133.215 0.931353 134.615 1.45836 135.888C1.98536 137.16 2.87782 138.247 4.02285 139.012C5.16789 139.778 6.51409 140.186 7.89122 140.186C9.73726 140.184 11.5071 139.45 12.8124 138.144C14.1178 136.839 14.852 135.069 14.8541 133.223Z" fill="#3F3D56"/>
<path d="M58.952 225.133C58.952 223.572 59.4148 222.046 60.2819 220.749C61.149 219.451 62.3814 218.439 63.8234 217.842C65.2653 217.245 66.852 217.089 68.3828 217.393C69.9135 217.698 71.3196 218.449 72.4232 219.553C73.5268 220.656 74.2784 222.062 74.5829 223.593C74.8874 225.124 74.7311 226.711 74.1338 228.153C73.5365 229.594 72.5251 230.827 71.2274 231.694C69.9297 232.561 68.404 233.024 66.8432 233.024C64.7511 233.022 62.7452 232.189 61.2659 230.71C59.7865 229.231 58.9543 227.225 58.952 225.133ZM73.8061 225.133C73.8061 223.756 73.3977 222.409 72.6326 221.264C71.8676 220.119 70.7801 219.227 69.5078 218.7C68.2355 218.173 66.8355 218.035 65.4849 218.304C64.1342 218.572 62.8935 219.235 61.9197 220.209C60.946 221.183 60.2828 222.424 60.0142 223.774C59.7455 225.125 59.8834 226.525 60.4104 227.797C60.9374 229.07 61.8298 230.157 62.9749 230.922C64.1199 231.687 65.4661 232.096 66.8432 232.096C68.6893 232.094 70.4591 231.359 71.7645 230.054C73.0698 228.749 73.8041 226.979 73.8061 225.133Z" fill="#3F3D56"/>
<path d="M77.9839 9.28382C77.9839 7.44766 77.4394 5.65273 76.4193 4.12602C75.3992 2.5993 73.9492 1.40936 72.2528 0.706685C70.5564 0.00401462 68.6898 -0.179825 66.8889 0.178393C65.088 0.536611 63.4338 1.42081 62.1354 2.71918C60.837 4.01754 59.9528 5.67176 59.5946 7.47265C59.2364 9.27353 59.4202 11.1402 60.1229 12.8366C60.8256 14.533 62.0155 15.9829 63.5422 17.003C65.069 18.0232 66.8639 18.5676 68.7001 18.5676C71.1601 18.5604 73.5173 17.58 75.2568 15.8405C76.9963 14.101 77.9767 11.7438 77.9839 9.28382ZM75.1987 9.28382C75.1987 9.83467 75.0354 10.3732 74.7294 10.8312C74.4233 11.2892 73.9883 11.6462 73.4794 11.857C72.9705 12.0678 72.4105 12.1229 71.8702 12.0155C71.33 11.908 70.8337 11.6427 70.4442 11.2532C70.0547 10.8637 69.7894 10.3674 69.682 9.82717C69.5745 9.28691 69.6296 8.72691 69.8405 8.21799C70.0513 7.70907 70.4082 7.27409 70.8662 6.96805C71.3243 6.66202 71.8627 6.49868 72.4136 6.49868C73.1515 6.50114 73.8585 6.79536 74.3803 7.31715C74.9021 7.83893 75.1963 8.54591 75.1987 9.28382ZM61.7908 9.28382C61.7958 8.18359 62.0691 7.10118 62.5871 6.1305C63.1052 5.15982 63.8522 4.33018 64.7634 3.71353C66.6201 3.75817 67.6422 7.42706 67.6422 9.28382C67.6422 11.1406 66.6201 14.8095 64.7634 14.8541C63.8528 14.2368 63.1064 13.407 62.5884 12.4365C62.0705 11.4659 61.7967 10.3839 61.7908 9.28382Z" fill="#3F3D56"/>
<path d="M204.708 41.3129C204.708 39.4767 204.164 37.6818 203.143 36.1551C202.123 34.6284 200.673 33.4384 198.977 32.7357C197.281 32.0331 195.414 31.8492 193.613 32.2074C191.812 32.5657 190.158 33.4499 188.86 34.7482C187.561 36.0466 186.677 37.7008 186.319 39.5017C185.961 41.3026 186.144 43.1692 186.847 44.8656C187.55 46.562 188.74 48.012 190.266 49.0321C191.793 50.0522 193.588 50.5967 195.424 50.5967C197.884 50.5895 200.241 49.6091 201.981 47.8696C203.72 46.1301 204.701 43.7729 204.708 41.3129ZM201.923 41.3129C201.923 41.8637 201.76 42.4022 201.453 42.8602C201.147 43.3182 200.712 43.6752 200.204 43.886C199.695 44.0968 199.135 44.152 198.594 44.0445C198.054 43.937 197.558 43.6718 197.168 43.2823C196.779 42.8928 196.514 42.3965 196.406 41.8562C196.299 41.316 196.354 40.756 196.565 40.247C196.775 39.7381 197.132 39.3031 197.59 38.9971C198.048 38.6911 198.587 38.5277 199.138 38.5277C199.876 38.5302 200.583 38.8244 201.104 39.3462C201.626 39.868 201.92 40.575 201.923 41.3129ZM188.515 41.3129C188.52 40.2126 188.793 39.1302 189.311 38.1596C189.829 37.1889 190.576 36.3592 191.487 35.7426C193.344 35.7872 194.366 39.4561 194.366 41.3129C194.366 43.1696 193.344 46.8385 191.487 46.8832C190.577 46.2658 189.83 45.436 189.313 44.4655C188.795 43.495 188.521 42.4129 188.515 41.3129Z" fill="#3F3D56"/>
<path d="M236.737 216.313C236.737 214.476 236.193 212.682 235.173 211.155C234.152 209.628 232.703 208.438 231.006 207.736C229.31 207.033 227.443 206.849 225.642 207.207C223.841 207.565 222.187 208.45 220.889 209.748C219.59 211.046 218.706 212.701 218.348 214.501C217.99 216.302 218.174 218.169 218.876 219.865C219.579 221.562 220.769 223.012 222.296 224.032C223.822 225.052 225.617 225.596 227.453 225.596C229.913 225.589 232.271 224.609 234.01 222.869C235.75 221.13 236.73 218.773 236.737 216.313ZM233.952 216.313C233.952 216.863 233.789 217.402 233.483 217.86C233.177 218.318 232.742 218.675 232.233 218.886C231.724 219.097 231.164 219.152 230.624 219.044C230.083 218.937 229.587 218.672 229.197 218.282C228.808 217.893 228.543 217.396 228.435 216.856C228.328 216.316 228.383 215.756 228.594 215.247C228.805 214.738 229.162 214.303 229.62 213.997C230.078 213.691 230.616 213.527 231.167 213.527C231.905 213.53 232.612 213.824 233.134 214.346C233.655 214.868 233.95 215.575 233.952 216.313ZM220.544 216.313C220.549 215.212 220.822 214.13 221.34 213.159C221.858 212.189 222.605 211.359 223.517 210.742C225.373 210.787 226.396 214.456 226.396 216.313C226.396 218.169 225.373 221.838 223.517 221.883C222.606 221.266 221.86 220.436 221.342 219.465C220.824 218.495 220.55 217.413 220.544 216.313Z" fill="#3F3D56"/>
<path d="M135.079 323.077C135.079 321.241 134.535 319.446 133.515 317.919C132.495 316.393 131.045 315.203 129.348 314.5C127.652 313.797 125.785 313.614 123.984 313.972C122.183 314.33 120.529 315.214 119.231 316.513C117.932 317.811 117.048 319.465 116.69 321.266C116.332 323.067 116.516 324.934 117.218 326.63C117.921 328.326 119.111 329.776 120.638 330.797C122.164 331.817 123.959 332.361 125.796 332.361C128.256 332.354 130.613 331.373 132.352 329.634C134.092 327.894 135.072 325.537 135.079 323.077ZM132.294 323.077C132.294 323.628 132.131 324.167 131.825 324.625C131.519 325.083 131.084 325.44 130.575 325.65C130.066 325.861 129.506 325.916 128.966 325.809C128.425 325.701 127.929 325.436 127.54 325.047C127.15 324.657 126.885 324.161 126.777 323.621C126.67 323.08 126.725 322.52 126.936 322.011C127.147 321.503 127.504 321.068 127.962 320.761C128.42 320.455 128.958 320.292 129.509 320.292C130.247 320.295 130.954 320.589 131.476 321.111C131.998 321.632 132.292 322.339 132.294 323.077ZM118.886 323.077C118.891 321.977 119.165 320.895 119.683 319.924C120.201 318.953 120.948 318.124 121.859 317.507C123.716 317.552 124.738 321.221 124.738 323.077C124.738 324.934 123.716 328.603 121.859 328.648C120.948 328.03 120.202 327.2 119.684 326.23C119.166 325.259 118.892 324.177 118.886 323.077Z" fill="#3F3D56"/>
<path d="M72.4136 340.716C72.4136 338.88 71.8691 337.085 70.849 335.558C69.8288 334.031 68.3789 332.841 66.6825 332.139C64.9861 331.436 63.1195 331.252 61.3186 331.611C59.5177 331.969 57.8635 332.853 56.5651 334.151C55.2667 335.45 54.3825 337.104 54.0243 338.905C53.6661 340.706 53.8499 342.572 54.5526 344.269C55.2553 345.965 56.4452 347.415 57.9719 348.435C59.4986 349.455 61.2936 350 63.1297 350C65.5898 349.993 67.947 349.012 69.6865 347.273C71.4259 345.533 72.4064 343.176 72.4136 340.716ZM69.6284 340.716C69.6284 341.267 69.4651 341.805 69.159 342.263C68.853 342.721 68.418 343.078 67.9091 343.289C67.4002 343.5 66.8402 343.555 66.2999 343.448C65.7597 343.34 65.2634 343.075 64.8739 342.685C64.4844 342.296 64.2191 341.8 64.1116 341.259C64.0042 340.719 64.0593 340.159 64.2701 339.65C64.4809 339.141 64.8379 338.706 65.2959 338.4C65.7539 338.094 66.2924 337.931 66.8433 337.931C67.5812 337.933 68.2882 338.227 68.81 338.749C69.3317 339.271 69.626 339.978 69.6284 340.716ZM56.2204 340.716C56.2255 339.616 56.4988 338.533 57.0168 337.563C57.5348 336.592 58.2818 335.762 59.193 335.146C61.0498 335.19 62.0719 338.859 62.0719 340.716C62.0719 342.573 61.0498 346.242 59.193 346.286C58.2825 345.669 57.536 344.839 57.0181 343.869C56.5002 342.898 56.2264 341.816 56.2204 340.716Z" fill="#3F3D56"/>
</svg>
