<svg width="25" height="25" viewBox="0 0 25 25" fill="none" xmlns="http://www.w3.org/2000/svg">
<path d="M12.075 14.6461L3.07614 23.645C2.73945 23.9817 2.31093 24.15 1.79059 24.15C1.27025 24.15 0.841729 23.9817 0.505037 23.645C0.168345 23.3083 0 22.8798 0 22.3594C0 21.8391 0.168345 21.4105 0.505037 21.0739L9.5039 12.075L0.505037 3.07614C0.168345 2.73945 0 2.31093 0 1.79059C0 1.27025 0.168345 0.841729 0.505037 0.505037C0.841729 0.168345 1.27025 0 1.79059 0C2.31093 0 2.73945 0.168345 3.07614 0.505037L12.075 9.5039L21.0739 0.505037C21.4105 0.168345 21.8391 0 22.3594 0C22.8798 0 23.3083 0.168345 23.645 0.505037C23.9817 0.841729 24.15 1.27025 24.15 1.79059C24.15 2.31093 23.9817 2.73945 23.645 3.07614L14.6461 12.075L23.645 21.0739C23.9817 21.4105 24.15 21.8391 24.15 22.3594C24.15 22.8798 23.9817 23.3083 23.645 23.645C23.3083 23.9817 22.8798 24.15 22.3594 24.15C21.8391 24.15 21.4105 23.9817 21.0739 23.645L12.075 14.6461Z" fill="#051923"/>
</svg>
