<svg width="82" height="65" viewBox="0 0 82 65" fill="none" xmlns="http://www.w3.org/2000/svg">
<path d="M80.5685 26.7067C78.5607 25.3477 73.2845 24.7673 69.4487 25.8062C69.2418 21.9643 67.2719 18.7268 63.6678 15.9021L62.3336 15.0015L61.4445 16.3518C59.6966 19.0198 58.9602 22.5741 59.2212 25.8051C59.4269 27.7957 60.1157 30.0335 61.4445 31.6571C56.452 34.569 51.8505 33.908 31.4714 33.908H0.00706382C-0.0849878 38.535 0.654674 47.4362 6.2839 54.6821C6.90552 55.4825 7.58779 56.2567 8.32745 57.0027C12.904 61.6111 19.8187 64.9902 30.1589 65C45.9333 65.0141 59.4486 56.4408 67.6694 35.7102C70.3746 35.7549 77.5156 36.1981 81.0103 29.4073C81.0959 29.293 81.8995 27.6062 81.8995 27.6062L80.5674 26.7056L80.5685 26.7067ZM20.5411 22.475H11.6933V31.3718H20.5411V22.475ZM31.9717 22.475H23.1239V31.3718H31.9717V22.475ZM43.4024 22.475H34.5546V31.3718H43.4024V22.475ZM54.833 22.475H45.9852V31.3718H54.833V22.475ZM9.11043 22.475H0.262643V31.3718H9.11043V22.475ZM20.5411 11.2381H11.6933V20.1349H20.5411V11.2381ZM31.9717 11.2381H23.1239V20.1349H31.9717V11.2381ZM43.4024 11.2381H34.5546V20.1349H43.4024V11.2381ZM43.4024 0H34.5546V8.8968H43.4024V0Z" fill="#051923"/>
</svg>
