<svg width="67" height="95" viewBox="0 0 67 95" fill="none" xmlns="http://www.w3.org/2000/svg">
<path d="M36 1.54774C39.135 1.42399 42.27 1.30024 45.5 1.17274C46.957 1.0908 46.957 1.0908 48.4434 1.00721C54.4169 0.894205 57.7853 2.09167 62.4238 5.8578C66.1162 9.81666 66.5462 13.6944 66.4531 18.9384C65.6831 23.3727 63.2424 26.5136 60 29.5477C56.9641 31.3731 54.7577 31.7882 51.2344 31.7431C50.4323 31.7381 49.6301 31.7331 48.8037 31.7279C47.796 31.7097 46.7883 31.6915 45.75 31.6727C42.5325 31.6315 39.315 31.5902 36 31.5477C36 21.6477 36 11.7477 36 1.54774Z" fill="#051923"/>
<path d="M15.2803 32.8047C16.4835 32.8122 16.4835 32.8122 17.711 32.8199C18.7187 32.8381 19.7265 32.8563 20.7647 32.875C23.9822 32.9163 27.1997 32.9575 30.5147 33C30.5147 42.9 30.5147 52.8 30.5147 63C27.3591 63.1032 24.2035 63.2063 20.9522 63.3125C19.4816 63.3808 19.4816 63.3808 17.9813 63.4505C11.4851 63.5526 8.39502 62.3024 3.51472 58C0.186226 54.2421 -0.111746 50.4397 0.0264355 45.5743C0.860977 41.1746 3.28488 38.0225 6.51472 35C9.55064 33.1747 11.7571 32.7596 15.2803 32.8047Z" fill="#051923"/>
<path d="M15.2803 0.804734C16.4835 0.812226 16.4835 0.812226 17.711 0.81987C18.7187 0.838078 19.7265 0.856286 20.7647 0.875046C23.9822 0.916296 27.1997 0.957546 30.5147 1.00005C30.5147 10.9 30.5147 20.8 30.5147 31C27.3591 31.1032 24.2035 31.2063 20.9522 31.3125C19.4816 31.3808 19.4816 31.3808 17.9813 31.4505C11.4851 31.5526 8.39502 30.3024 3.51472 26C0.186226 22.2421 -0.111746 18.4397 0.0264355 13.5743C0.860977 9.17456 3.28488 6.02246 6.51472 3.00005C9.55064 1.17472 11.7571 0.759563 15.2803 0.804734Z" fill="#051923"/>
<path d="M20.604 64.75C21.9942 64.777 21.9942 64.777 23.4125 64.8046C25.6858 64.8515 27.9568 64.9171 30.229 65C32.9958 70.5337 31.766 79.2023 30.104 85C28.7844 88.242 27.2716 91.0769 24.3696 93.1875C19.3017 95.111 13.5024 94.8943 8.22896 94C4.0447 91.2356 1.95782 88.7316 0.228955 84C-0.368319 78.6245 0.110913 75.3189 2.76802 70.6406C8.10182 64.6508 13.0943 64.4714 20.604 64.75Z" fill="#051923"/>
<path d="M56.436 33.3977C60.3052 35.451 62.7741 38.3703 64.436 42.3977C65.0851 46.1556 65.277 49.8129 63.4555 53.2454C61.2034 56.0657 58.9196 58.4024 55.436 59.3977C50.6593 59.86 48.4169 59.8975 44.1235 57.7102C40.7553 54.8121 38.8296 52.7593 38.0844 48.2884C37.8194 44.1326 38.049 41.2808 40.686 37.9602C45.5335 33.4433 49.9 32.2763 56.436 33.3977Z" fill="#051923"/>
</svg>
