<svg width="52" height="65" viewBox="0 0 52 65" fill="none" xmlns="http://www.w3.org/2000/svg">
<path d="M51.7527 35.644V35.6235C51.7524 35.6158 51.7524 35.6081 51.7527 35.6004C51.1341 31.5935 49.5291 27.9024 47.4 24.5823C47.1322 24.1625 46.8537 23.7499 46.569 23.3399C46.4309 23.1411 46.2907 22.9441 46.1485 22.7489C43.4108 18.9717 34.7633 8.70263 30.2206 3.34847C28.5021 1.32234 27.3712 0 27.3712 0C26.8588 0.408247 26.358 0.829495 25.8688 1.26377L25.8518 1.27885C22.309 4.57103 19.3712 8.45249 17.1706 12.7487L17.1635 12.7619C16.7397 13.5904 16.344 14.4334 15.9762 15.2913C15.1253 17.2787 14.4337 19.3299 13.9078 21.4256C13.5889 22.6923 13.3306 23.9812 13.133 25.2923C12.0457 25.1155 10.9475 25.0129 9.84625 24.9852C9.63785 24.9799 9.42956 24.9773 9.22127 24.9773C7.42162 24.976 5.62739 25.1754 3.87239 25.5719C2.7982 27.2965 1.93335 29.1418 1.29616 31.069C0.434834 33.6771 -0.0026971 36.4051 1.25084e-05 39.1503C1.25084e-05 51.6975 8.99284 62.1583 20.9207 64.5056C22.5934 64.8351 24.2947 65.0007 26 65C26.3366 65 26.6713 64.9929 27.0051 64.9814C27.8818 64.9471 28.7461 64.8713 29.5984 64.7542C31.5843 64.4804 33.5314 63.9783 35.4008 63.2579C35.8989 63.0662 36.3892 62.8591 36.8719 62.6367C45.7986 58.5445 52 49.5667 52 39.1503C51.9966 37.9773 51.914 36.8059 51.7527 35.644ZM17.608 58.8772C15.048 57.802 12.7224 56.2429 10.7603 54.2863C8.7928 52.3356 7.22488 50.024 6.14339 47.4793C5.0215 44.8432 4.44647 42.0092 4.45271 39.1468C4.44635 36.2842 5.02138 33.4498 6.14339 30.8133C6.32187 30.3897 6.51508 29.9738 6.72278 29.5656C7.54803 29.4626 8.37894 29.4111 9.21055 29.4111C10.3806 29.411 11.5482 29.5138 12.7001 29.7182C12.6751 30.296 12.6626 30.879 12.6626 31.4638C12.6468 42.3447 16.9623 52.7898 24.6664 60.5183C22.2366 60.3761 19.8492 59.821 17.608 58.8772ZM27.1596 56.695C26.6371 56.143 26.1345 55.5767 25.6519 54.9963C23.3381 52.2275 21.4474 49.1349 20.0405 45.8179C18.1073 41.2757 17.1159 36.3924 17.1259 31.4603C17.1259 31.3259 17.1259 31.192 17.1259 31.0583C19.3375 32.0336 21.3484 33.4075 23.0569 35.1106C25.7057 37.7298 27.5396 41.0521 28.3397 44.6802C28.6422 46.059 28.7942 47.466 28.7931 48.8771C28.8015 51.5671 28.2473 54.2293 27.1658 56.695H27.1596ZM47.5492 39.8878C47.4127 43.9132 46.135 47.8185 43.8633 51.1535C42.0171 53.8619 39.5749 56.1169 36.7219 57.7475L36.6933 57.7342C35.9436 58.1613 35.1685 58.543 34.3723 58.8772C33.3806 59.2944 32.3586 59.6365 31.315 59.9005C31.1293 59.9479 30.943 59.9922 30.7562 60.0336C30.6553 60.0567 30.5553 60.0789 30.4545 60.0993C30.4937 60.0283 30.5321 59.9547 30.5696 59.8819C30.6277 59.771 30.6848 59.66 30.7402 59.5482C31.4216 58.1932 31.9704 56.7761 32.379 55.3167C32.9655 53.2217 33.2619 51.057 33.2601 48.8825C33.2609 47.3005 33.1046 45.7222 32.7932 44.1708C31.1392 35.9474 25.2421 29.2488 17.4687 26.4212C17.8269 23.8055 18.4694 21.2364 19.3853 18.7587C19.5906 18.2043 19.8094 17.6537 20.0414 17.1071C20.3913 16.2835 20.7699 15.4759 21.1769 14.6843C21.1794 14.6803 21.1814 14.6762 21.1831 14.6719C21.3501 14.3266 21.5223 13.9867 21.7009 13.6477C23.1021 10.995 24.8684 8.54956 26.9489 6.38187L26.9837 6.4236C28.828 8.59792 31.2962 11.5231 33.7547 14.4704C35.0124 15.9791 36.2675 17.494 37.4351 18.9184C39.6249 21.5906 41.5066 23.9442 42.5234 25.342C42.6689 25.5426 42.8109 25.7423 42.9501 25.9446C44.4105 28.0523 45.5389 30.1833 46.3038 32.291C46.7902 33.6199 47.141 34.9941 47.351 36.393V36.4106C47.5228 37.5614 47.5897 38.7251 47.5509 39.8878H47.5492Z" fill="#1F1F1F"/>
</svg>
