<svg width="67" height="65" viewBox="0 0 67 65" fill="none" xmlns="http://www.w3.org/2000/svg">
<path fill-rule="evenodd" clip-rule="evenodd" d="M33.0781 0C14.7868 0 0 14.8958 0 33.3239C0 48.0544 9.47439 60.5235 22.6179 64.9368C24.2612 65.2685 24.8631 64.2197 24.8631 63.3375C24.8631 62.5649 24.8089 59.9169 24.8089 57.1578C15.6074 59.1443 13.6912 53.1854 13.6912 53.1854C12.2125 49.3233 10.0215 48.3307 10.0215 48.3307C7.00981 46.2893 10.2408 46.2893 10.2408 46.2893C13.5816 46.51 15.3345 49.7099 15.3345 49.7099C18.2913 54.7853 23.0559 53.3512 24.9728 52.4683C25.2463 50.3166 26.1231 48.827 27.0541 47.9996C19.7152 47.227 11.9938 44.3583 11.9938 31.558C11.9938 27.9167 13.3073 24.9376 15.3887 22.6206C15.0603 21.7932 13.9099 18.3719 15.7177 13.7928C15.7177 13.7928 18.5107 12.9099 24.8082 17.2134C27.5044 16.484 30.285 16.1129 33.0781 16.1098C35.8711 16.1098 38.7182 16.4964 41.3473 17.2134C47.6455 12.9099 50.4384 13.7928 50.4384 13.7928C52.2462 18.3719 51.0952 21.7932 50.7668 22.6206C52.903 24.9376 54.1624 27.9167 54.1624 31.558C54.1624 44.3583 46.441 47.1715 39.0472 47.9996C40.2524 49.0477 41.2924 51.0336 41.2924 54.1786C41.2924 58.6474 41.2383 62.2339 41.2383 63.3368C41.2383 64.2197 41.8409 65.2685 43.4835 64.9374C56.627 60.5229 66.1013 48.0544 66.1013 33.3239C66.1555 14.8958 51.3146 0 33.0781 0Z" fill="#051923"/>
</svg>
