<svg width="223" height="263" viewBox="0 0 223 263" fill="none" xmlns="http://www.w3.org/2000/svg">
<path d="M158.356 220.704L160.558 263C160.558 263 67.3889 174.314 55.7815 148.366C44.1742 122.417 66.0233 58.229 66.0233 58.229L114.501 84.8594L158.356 220.704Z" fill="#ED9DA0"/>
<path d="M15.4976 40.4805L1.15918 41.8462C1.15918 41.8462 -6.35144 58.2347 16.8632 59.5998L15.4976 40.4805Z" fill="#ED9DA0"/>
<path d="M15.4976 65.7402L1.15918 67.1069C1.15918 67.1069 -6.35144 83.4955 16.8632 84.8605L15.4976 65.7402Z" fill="#ED9DA0"/>
<path d="M15.4976 93.0571L1.15918 94.4228C1.15918 94.4228 -6.35144 110.811 16.8632 112.176L15.4976 93.0571Z" fill="#ED9DA0"/>
<path d="M19.5943 120.374L5.2558 121.74C5.2558 121.74 -2.25482 138.128 20.9598 139.493L19.5943 120.374Z" fill="#ED9DA0"/>
<path d="M8.51709 47.0596H9.6052V17.2519C9.6052 12.6764 11.4226 8.28833 14.6576 5.05297C17.8926 1.81761 22.2803 0 26.8553 0H89.9994C94.5744 0 98.9621 1.81761 102.197 5.05297C105.432 8.28833 107.249 12.6764 107.249 17.2519V180.779C107.249 183.044 106.803 185.287 105.936 187.381C105.07 189.474 103.799 191.375 102.197 192.977C100.595 194.579 98.6936 195.85 96.6008 196.717C94.5079 197.584 92.2647 198.03 89.9994 198.03H26.8553C24.59 198.03 22.3468 197.584 20.254 196.717C18.1611 195.85 16.2594 194.579 14.6576 192.977C13.0558 191.375 11.7852 189.474 10.9183 187.381C10.0514 185.287 9.6052 183.044 9.6052 180.779V68.2771H8.51709V47.0596Z" fill="#3F3D56"/>
<path d="M26.159 4.48796H34.4014C34.0224 5.41729 33.8777 6.42557 33.9801 7.42399C34.0825 8.42242 34.4288 9.38034 34.9885 10.2134C35.5483 11.0464 36.3043 11.729 37.1899 12.2011C38.0755 12.6731 39.0636 12.9201 40.0672 12.9203H76.2425C77.2462 12.9201 78.2344 12.6732 79.1201 12.2012C80.0058 11.7291 80.7618 11.0465 81.3216 10.2134C81.8814 9.38034 82.2278 8.42236 82.3302 7.42387C82.4326 6.42539 82.288 5.41704 81.909 4.48764H89.6076C93.024 4.48772 96.3006 5.84508 98.7163 8.26113C101.132 10.6772 102.489 13.954 102.489 17.3708V180.657C102.489 184.074 101.132 187.351 98.7165 189.767C96.3007 192.183 93.0241 193.541 89.6076 193.541H26.159C22.7425 193.541 19.4659 192.183 17.05 189.767C14.6341 187.351 13.2769 184.074 13.2769 180.657V17.3708C13.2769 13.9539 14.6341 10.6769 17.05 8.26081C19.4659 5.84468 22.7425 4.4873 26.159 4.4873V4.48796Z" fill="white"/>
<path d="M68.8473 50.2363H46.9196C45.4672 50.2363 44.2897 51.4139 44.2897 52.8665V54.1674C44.2897 55.62 45.4672 56.7976 46.9196 56.7976H68.8473C70.2997 56.7976 71.4772 55.62 71.4772 54.1674V52.8665C71.4772 51.4139 70.2997 50.2363 68.8473 50.2363Z" fill="#051923"/>
<path d="M70.1412 78.4214H45.6248C44.1723 78.4214 42.9949 79.599 42.9949 81.0516V82.3525C42.9949 83.8051 44.1723 84.9827 45.6248 84.9827H70.1412C71.5937 84.9827 72.7711 83.8051 72.7711 82.3525V81.0516C72.7711 79.599 71.5937 78.4214 70.1412 78.4214Z" fill="#E5E5E5"/>
<path d="M88.4821 92.521H27.2843C25.8319 92.521 24.6544 93.6986 24.6544 95.1512V96.4521C24.6544 97.9047 25.8319 99.0823 27.2843 99.0823H88.4821C89.9345 99.0823 91.112 97.9047 91.112 96.4521V95.1512C91.112 93.6986 89.9345 92.521 88.4821 92.521Z" fill="#E5E5E5"/>
<path d="M88.4821 106.619H27.2843C25.8319 106.619 24.6544 107.797 24.6544 109.249V110.55C24.6544 112.003 25.8319 113.18 27.2843 113.18H88.4821C89.9345 113.18 91.112 112.003 91.112 110.55V109.249C91.112 107.797 89.9345 106.619 88.4821 106.619Z" fill="#E5E5E5"/>
<path d="M222.673 242.741L218.451 237.924L146.25 155.544L143.519 99.5498L114.842 51.7499L106.649 31.2642C106.649 31.2642 87.5309 33.3127 103.235 72.2352L109.721 93.0622C103.874 105.657 100.845 119.376 100.845 133.262V180.988C100.845 192.225 154.392 253.438 160.625 262.788L222.673 242.741Z" fill="#ED9DA0"/>
<path opacity="0.2" d="M108.897 55.8L114.598 52.9979L114.403 52.6034L109.136 55.1928L101.185 34.3418L100.773 34.499L108.897 55.8Z" fill="black"/>
<path opacity="0.2" d="M1.23547 41.6374L1.08321 42.0508L9.52856 45.1621L9.68082 44.7487L1.23547 41.6374Z" fill="black"/>
<path opacity="0.2" d="M1.23584 67.1891L1.08357 67.6025L9.52892 70.7138L9.68119 70.3004L1.23584 67.1891Z" fill="black"/>
<path opacity="0.2" d="M1.23584 94.5055L1.08357 94.9189L9.52893 98.0302L9.68119 97.6168L1.23584 94.5055Z" fill="black"/>
<path opacity="0.2" d="M5.6605 121.823L5.46989 122.22L9.5817 124.193L9.77231 123.796L5.6605 121.823Z" fill="black"/>
<path d="M57.8345 169.931C68.3522 169.931 76.8784 161.404 76.8784 150.885C76.8784 140.366 68.3522 131.839 57.8345 131.839C47.3168 131.839 38.7905 140.366 38.7905 150.885C38.7905 161.404 47.3168 169.931 57.8345 169.931Z" fill="#051923"/>
<path d="M55.7948 158.945C55.5634 158.945 55.3342 158.9 55.1204 158.811C54.9066 158.722 54.7124 158.592 54.5489 158.429L48.5114 152.062C48.1809 151.731 47.9952 151.283 47.9952 150.816C47.9952 150.348 48.1809 149.9 48.5114 149.57C48.8419 149.239 49.2901 149.053 49.7575 149.053C50.2248 149.053 50.673 149.239 51.0035 149.57L55.7948 154.69L64.651 142.874C64.9815 142.544 65.4297 142.358 65.897 142.358C66.3644 142.358 66.8126 142.544 67.1431 142.874C67.4736 143.205 67.6593 143.653 67.6593 144.12C67.6593 144.588 67.4736 145.036 67.1431 145.367L57.0407 158.429C56.8773 158.592 56.6831 158.722 56.4693 158.811C56.2555 158.9 56.0263 158.945 55.7948 158.945Z" fill="#F2F2F2"/>
</svg>
