<svg width="106" height="106" viewBox="0 0 106 106" fill="none" xmlns="http://www.w3.org/2000/svg">
<path d="M105.5 9.25V96.75C105.5 99.0707 104.578 101.296 102.937 102.937C101.296 104.578 99.0706 105.5 96.75 105.5H52.8086C52.4065 105.499 52.0125 105.386 51.67 105.176C51.3275 104.965 51.0497 104.664 50.8672 104.306C50.6846 103.947 50.6044 103.546 50.6353 103.145C50.6661 102.744 50.8069 102.359 51.0422 102.033C55.1437 96.4383 57.375 89.3235 57.375 81.3391C57.375 79.8133 57.3039 78.3531 57.1836 76.9367C79.682 75.6024 96.75 63.6477 96.75 48.625C96.75 32.6836 77.5328 20.1875 53 20.1875C28.4672 20.1875 9.25 32.6781 9.25 48.625C9.25 63.5602 26.1047 75.4602 48.3953 76.9149C48.5495 78.3846 48.6261 79.8613 48.625 81.3391C48.625 90.975 44.4414 98.8118 37.1406 102.842C33.8443 104.672 30.1197 105.589 26.3508 105.5H9.25C6.92936 105.5 4.70376 104.578 3.06282 102.937C1.42187 101.296 0.5 99.0707 0.5 96.75V9.25C0.5 6.92936 1.42187 4.70376 3.06282 3.06282C4.70376 1.42187 6.92936 0.5 9.25 0.5H96.75C99.0706 0.5 101.296 1.42187 102.937 3.06282C104.578 4.70376 105.5 6.92936 105.5 9.25ZM88 48.625C88 37.9555 71.9711 28.9375 53 28.9375C34.0289 28.9375 18 37.95 18 48.625C18.0259 50.6734 18.5919 52.6786 19.6406 54.4383C21.5906 52.36 23.9966 50.763 26.6691 49.7732C29.3415 48.7834 32.2073 48.4278 35.0406 48.7344C43.2438 49.6258 51.9062 56.0625 55.5703 68.2469C73.3984 67.4758 88 58.8078 88 48.625Z" fill="black"/>
</svg>
