<svg width="29" height="14" viewBox="0 0 29 14" fill="none" xmlns="http://www.w3.org/2000/svg">
<path d="M8.5 6.625H19.75" stroke="#0000EE" stroke-width="2" stroke-linecap="round" stroke-linejoin="round"/>
<path d="M11.3125 12.25H6.625C5.13316 12.25 3.70242 11.6574 2.64752 10.6025C1.59263 9.54758 1 8.11684 1 6.625C1 5.13316 1.59263 3.70242 2.64752 2.64752C3.70242 1.59263 5.13316 1 6.625 1H11.3125" stroke="#0000EE" stroke-width="2" stroke-linecap="round" stroke-linejoin="round"/>
<path d="M16.9375 1H21.625C23.1168 1 24.5476 1.59263 25.6025 2.64752C26.6574 3.70242 27.25 5.13316 27.25 6.625C27.25 8.11684 26.6574 9.54758 25.6025 10.6025C24.5476 11.6574 23.1168 12.25 21.625 12.25H16.9375" stroke="#0000EE" stroke-width="2" stroke-linecap="round" stroke-linejoin="round"/>
</svg>
