<svg width="215" height="300" viewBox="0 0 215 300" fill="none" xmlns="http://www.w3.org/2000/svg">
<path d="M212.271 78.7258H201.555C201.008 78.7252 200.484 78.5079 200.098 78.1215C199.712 77.7352 199.494 77.2113 199.494 76.6649V65.9483C199.494 65.4019 199.712 64.8781 200.098 64.4918C200.484 64.1054 201.008 63.8881 201.555 63.8875H212.271C212.818 63.8881 213.341 64.1054 213.728 64.4918C214.114 64.8781 214.332 65.4019 214.332 65.9483V76.6649C214.332 77.2113 214.114 77.7352 213.728 78.1215C213.341 78.5079 212.818 78.7252 212.271 78.7258ZM201.555 64.7118C201.227 64.7122 200.913 64.8426 200.681 65.0744C200.449 65.3062 200.318 65.6205 200.318 65.9483V76.6649C200.318 76.9928 200.449 77.3071 200.681 77.5389C200.913 77.7707 201.227 77.9011 201.555 77.9015H212.271C212.599 77.9011 212.913 77.7707 213.145 77.5389C213.377 77.3071 213.507 76.9928 213.508 76.6649V65.9483C213.507 65.6205 213.377 65.3062 213.145 65.0744C212.913 64.8426 212.599 64.7122 212.271 64.7118H201.555Z" fill="#E6E6E6"/>
<path d="M87.3816 14.8384H76.665C76.1186 14.8378 75.5948 14.6204 75.2084 14.2341C74.8221 13.8477 74.6048 13.3239 74.6041 12.7775V2.06089C74.6048 1.5145 74.8221 0.990666 75.2084 0.60431C75.5948 0.217954 76.1186 0.000625088 76.665 0H87.3816C87.928 0.000625088 88.4518 0.217954 88.8382 0.60431C89.2245 0.990666 89.4419 1.5145 89.4425 2.06089V12.7775C89.4419 13.3239 89.2245 13.8477 88.8382 14.2341C88.4518 14.6204 87.928 14.8378 87.3816 14.8384ZM76.665 0.824355C76.3372 0.824713 76.0229 0.955105 75.791 1.18692C75.5592 1.41874 75.4288 1.73305 75.4285 2.06089V12.7775C75.4288 13.1053 75.5592 13.4196 75.791 13.6515C76.0229 13.8833 76.3372 14.0137 76.665 14.014H87.3816C87.7095 14.0137 88.0238 13.8833 88.2556 13.6515C88.4874 13.4196 88.6178 13.1053 88.6181 12.7775V2.06089C88.6178 1.73305 88.4874 1.41874 88.2556 1.18692C88.0238 0.955105 87.7095 0.824713 87.3816 0.824355H76.665Z" fill="#E6E6E6"/>
<path d="M205.676 73.3677H194.96C194.413 73.3671 193.889 73.1497 193.503 72.7634C193.117 72.377 192.899 71.8532 192.899 71.3068V60.5902C192.899 60.0438 193.117 59.52 193.503 59.1336C193.889 58.7473 194.413 58.5299 194.96 58.5293H205.676C206.223 58.5299 206.747 58.7473 207.133 59.1336C207.519 59.52 207.737 60.0438 207.737 60.5902V71.3068C207.737 71.8532 207.519 72.377 207.133 72.7634C206.747 73.1497 206.223 73.3671 205.676 73.3677ZM194.96 59.3537C194.632 59.354 194.318 59.4844 194.086 59.7162C193.854 59.948 193.724 60.2623 193.723 60.5902V71.3068C193.724 71.6346 193.854 71.9489 194.086 72.1808C194.318 72.4126 194.632 72.543 194.96 72.5433H205.676C206.004 72.543 206.318 72.4126 206.55 72.1808C206.782 71.9489 206.912 71.6346 206.913 71.3068V60.5902C206.912 60.2623 206.782 59.948 206.55 59.7162C206.318 59.4844 206.004 59.354 205.676 59.3537H194.96Z" fill="#E6E6E6"/>
<path d="M19.3722 162.81H8.65561C8.10922 162.809 7.58539 162.592 7.19904 162.206C6.81268 161.819 6.59535 161.295 6.59473 160.749V150.032C6.59535 149.486 6.81268 148.962 7.19904 148.576C7.58539 148.189 8.10922 147.972 8.65561 147.971H19.3722C19.9186 147.972 20.4424 148.189 20.8288 148.576C21.2152 148.962 21.4325 149.486 21.4331 150.032V160.749C21.4325 161.295 21.2152 161.819 20.8288 162.206C20.4424 162.592 19.9186 162.809 19.3722 162.81ZM8.65561 148.796C8.32777 148.796 8.01347 148.927 7.78165 149.158C7.54983 149.39 7.41944 149.704 7.41908 150.032V160.749C7.41944 161.077 7.54983 161.391 7.78165 161.623C8.01347 161.855 8.32777 161.985 8.65561 161.985H19.3722C19.7001 161.985 20.0144 161.855 20.2462 161.623C20.478 161.391 20.6084 161.077 20.6088 160.749V150.032C20.6084 149.704 20.478 149.39 20.2462 149.158C20.0144 148.927 19.7001 148.796 19.3722 148.796H8.65561Z" fill="#E6E6E6"/>
<path d="M12.7775 157.452H2.06089C1.5145 157.451 0.990665 157.234 0.60431 156.847C0.217954 156.461 0.000625088 155.937 0 155.391V144.674C0.000625088 144.128 0.217954 143.604 0.60431 143.218C0.990665 142.831 1.5145 142.614 2.06089 142.613H12.7775C13.3239 142.614 13.8477 142.831 14.2341 143.218C14.6204 143.604 14.8378 144.128 14.8384 144.674V155.391C14.8378 155.937 14.6204 156.461 14.2341 156.847C13.8477 157.234 13.3239 157.451 12.7775 157.452ZM2.06089 143.438C1.73305 143.438 1.41874 143.568 1.18692 143.8C0.955104 144.032 0.824712 144.346 0.824354 144.674V155.391C0.824712 155.719 0.955104 156.033 1.18692 156.265C1.41874 156.497 1.73305 156.627 2.06089 156.627H12.7775C13.1053 156.627 13.4196 156.497 13.6515 156.265C13.8833 156.033 14.0137 155.719 14.014 155.391V144.674C14.0137 144.346 13.8833 144.032 13.6515 143.8C13.4196 143.568 13.1053 143.438 12.7775 143.438H2.06089Z" fill="#E6E6E6"/>
<path d="M38.0972 35.4631H137.273C142.059 35.4631 146.703 37.0913 150.44 40.0802C154.178 43.069 156.788 47.2406 157.84 51.9092L207.952 274.183C208.498 276.607 208.508 279.122 207.98 281.551C207.452 283.979 206.399 286.263 204.895 288.241C203.391 290.22 201.473 291.846 199.274 293.004C197.076 294.163 194.65 294.827 192.168 294.949L90.2142 299.973C84.7549 300.242 79.3842 298.515 75.1044 295.115C70.8245 291.715 67.9278 286.874 66.9549 281.496L38.5284 124.346L36.4136 124.95L30.9745 95.1642L33.1514 94.62L25.2166 50.7538C24.8767 48.8749 24.9555 46.9442 25.4474 45.0993C25.9393 43.2544 26.8321 41.5407 28.0622 40.0804C29.2924 38.6201 30.8295 37.4491 32.5641 36.651C34.2986 35.8529 36.1879 35.4473 38.0972 35.4631Z" fill="#3F3D56"/>
<path d="M124.217 40.2549H135.794C139.119 40.2549 142.343 41.3919 144.933 43.4772C147.522 45.5626 149.32 48.4707 150.029 51.719L198.129 272.179C198.406 273.449 198.406 274.763 198.129 276.032C197.851 277.301 197.303 278.495 196.522 279.533C195.74 280.571 194.744 281.428 193.601 282.046C192.458 282.664 191.196 283.027 189.899 283.112L88.2753 289.773C85.4084 289.961 82.5726 289.086 80.3091 287.317C78.0457 285.547 76.513 283.006 76.0037 280.178L34.9593 52.3112C34.6937 50.8363 34.7549 49.3211 35.1388 47.8725C35.5227 46.424 36.2198 45.0773 37.1809 43.9275C38.1421 42.7778 39.3439 41.853 40.7015 41.2184C42.0591 40.5838 43.5394 40.2549 45.038 40.2549H56.0204C57.0834 40.2549 58.1167 40.6053 58.9604 41.2519C59.804 41.8985 60.411 42.8051 60.6874 43.8315C60.9313 44.7377 61.4672 45.5381 62.212 46.1089C62.9569 46.6797 63.8691 46.9891 64.8075 46.9891H116.945C118.783 46.9891 120.552 46.2955 121.901 45.047C123.249 43.7984 124.076 42.087 124.217 40.2549Z" fill="white"/>
<path d="M42.8663 77.739H153.114L164.859 130.66L53.1708 132.721L42.8663 77.739Z" fill="#051923"/>
<path d="M147.56 177.959H173.515L174.339 182.928H148.384L147.56 177.959Z" fill="#051923"/>
<path d="M168.677 152.611L58.5994 154.942L58.6103 155.46L168.688 153.129L168.677 152.611Z" fill="#2F2E41"/>
<path d="M172.044 167.893L59.8939 170.483L59.9059 171.001L172.056 168.411L172.044 167.893Z" fill="#2F2E41"/>
<path d="M158.276 231.13H184.231L185.056 236.099H159.1L158.276 231.13Z" fill="#051923"/>
<path d="M179.394 205.782L69.3158 208.113L69.3268 208.631L179.405 206.3L179.394 205.782Z" fill="#2F2E41"/>
<path d="M182.761 221.063L70.6105 223.654L70.6224 224.172L182.772 221.582L182.761 221.063Z" fill="#2F2E41"/>
<path d="M199.129 129.93C204.39 129.93 208.656 125.665 208.656 120.403C208.656 115.141 204.39 110.876 199.129 110.876C193.867 110.876 189.601 115.141 189.601 120.403C189.601 125.665 193.867 129.93 199.129 129.93Z" fill="#2F2E41"/>
<path d="M210.085 126.38C208.851 127.271 207.423 127.854 205.918 128.08C204.414 128.306 202.877 128.168 201.436 127.679C199.996 127.189 198.694 126.361 197.639 125.265C196.583 124.169 195.806 122.836 195.372 121.377C195.536 122.684 195.97 123.943 196.645 125.074C197.32 126.204 198.223 127.183 199.295 127.947C200.368 128.712 201.587 129.246 202.876 129.515C204.166 129.784 205.497 129.784 206.785 129.513C208.074 129.242 209.293 128.706 210.365 127.941C211.436 127.175 212.337 126.195 213.011 125.064C213.685 123.932 214.117 122.673 214.28 121.366C214.443 120.059 214.333 118.733 213.957 117.47C214.171 119.166 213.924 120.888 213.242 122.456C212.561 124.024 211.47 125.379 210.085 126.38Z" fill="#2F2E41"/>
</svg>
