<svg width="31" height="65" viewBox="0 0 31 65" fill="none" xmlns="http://www.w3.org/2000/svg">
<path d="M20.9131 7.2447C18.173 4.00798 15.8135 0.720676 15.3314 0.0379303C15.2807 -0.0126434 15.2045 -0.0126434 15.1538 0.0379303C14.6717 0.720676 12.3122 4.00798 9.57208 7.2447C-13.9471 37.1085 13.2763 57.2622 13.2763 57.2622L13.5047 57.4139C13.7076 60.5243 14.215 65 14.215 65H15.2299H16.2448C16.2448 65 16.7522 60.5495 16.9552 57.4139L17.1835 57.237C17.2089 57.237 44.4323 37.1085 20.9131 7.2447ZM15.2299 56.807C15.2299 56.807 14.0121 55.7703 13.6823 55.2392V55.1888L15.1538 22.6697C15.1538 22.5686 15.306 22.5686 15.306 22.6697L16.7776 55.1888V55.2392C16.4477 55.7703 15.2299 56.807 15.2299 56.807Z" fill="#001E2B"/>
</svg>
