<svg width="57" height="65" viewBox="0 0 57 65" fill="none" xmlns="http://www.w3.org/2000/svg">
<path d="M29.8795 0.408169C28.9173 -0.136056 27.7751 -0.136056 26.8132 0.408169L1.50295 15.1083C0.54109 15.6527 0 16.681 0 17.7701V47.2301C0 48.3192 0.601182 49.3473 1.50295 49.8919L26.8132 64.5918C27.7751 65.1361 28.9173 65.1361 29.8795 64.5918L55.1895 49.8919C56.1516 49.3473 56.6924 48.3192 56.6924 47.2301V17.7701C56.6924 16.681 56.0914 15.6527 55.1895 15.1083L29.8795 0.408169Z" fill="#051923"/>
<mask id="mask0_1087_345" style="mask-type:luminance" maskUnits="userSpaceOnUse" x="0" y="0" width="57" height="65">
<path d="M29.8795 0.408169C28.9173 -0.136056 27.7751 -0.136056 26.8132 0.408169L1.50295 15.1083C0.54109 15.6527 0 16.681 0 17.7701V47.2301C0 48.3192 0.601182 49.3473 1.50295 49.8919L26.8132 64.5918C27.7751 65.1361 28.9173 65.1361 29.8795 64.5918L55.1895 49.8919C56.1516 49.3473 56.6924 48.3192 56.6924 47.2301V17.7701C56.6924 16.681 56.0914 15.6527 55.1895 15.1083L29.8795 0.408169Z" fill="white"/>
</mask>
<g mask="url(#mask0_1087_345)">
<path d="M28.3463 -1.50342L56.4412 15.4724L28.3463 66.5826L0.199585 49.5771L28.3463 -1.50342Z" fill="#051923"/>
</g>
<mask id="mask1_1087_345" style="mask-type:luminance" maskUnits="userSpaceOnUse" x="0" y="0" width="57" height="65">
<path d="M29.8795 0.408169C28.9173 -0.136056 27.7751 -0.136056 26.8132 0.408169L1.50295 15.1083C0.54109 15.6527 0 16.681 0 17.7701V47.2301C0 48.3192 0.601182 49.3473 1.50295 49.8919L26.8132 64.5918C27.7751 65.1361 28.9173 65.1361 29.8795 64.5918L55.1895 49.8919C56.1516 49.3473 56.6924 48.3192 56.6924 47.2301V17.7701C56.6924 16.681 56.0914 15.6527 55.1895 15.1083L29.8795 0.408169Z" fill="white"/>
</mask>
<g mask="url(#mask1_1087_345)">
<path d="M28.3463 -1.50342L0.199585 15.4724L28.3463 66.5826L56.4412 49.5771L28.3463 -1.50342Z" fill="#051923"/>
</g>
</svg>
