<svg width="65" height="65" viewBox="0 0 65 65" fill="none" xmlns="http://www.w3.org/2000/svg">
<path d="M55.5614 32.4997C63.9065 20.7827 68.162 8.673 62.2443 2.75525C56.3265 -3.1625 44.2168 1.093 32.4997 9.43811C20.7827 1.093 8.673 -3.1625 2.75525 2.75525C-3.1625 8.673 1.093 20.7827 9.43811 32.4997C1.093 44.2168 -3.1625 56.3265 2.75525 62.2443C4.66125 64.1503 7.20711 65 10.1728 65C16.4257 65 24.5541 61.2185 32.5167 55.5614C40.4454 61.2185 48.5704 65 54.8437 65C57.8093 65 60.3586 64.1469 62.2612 62.2443C68.162 56.3265 63.9065 44.2168 55.5614 32.4997ZM58.4153 6.58419C61.0018 9.17066 59.2549 17.553 52.1455 28.0073C49.8963 25.223 47.5018 22.5595 44.9717 20.0278C42.4388 17.5022 39.7754 15.111 36.9922 12.8642C47.4465 5.75475 55.8288 3.99771 58.4153 6.58419ZM6.58419 6.58419C7.32898 5.836 8.5579 5.45006 10.1795 5.45006C14.1811 5.45006 20.5695 7.78602 28.0039 12.8642C25.2225 15.1119 22.5602 17.503 20.0278 20.0278C17.5012 22.5597 15.11 25.2233 12.8642 28.0073C5.75475 17.553 3.99771 9.17066 6.58419 6.58419ZM6.58419 58.4153C3.99771 55.8288 5.75475 47.4465 12.8642 36.9922C15.1133 39.7765 17.5079 42.44 20.0379 44.9717C22.5683 47.4963 25.2283 49.8874 28.0073 52.1353C17.553 59.2447 9.17066 61.0018 6.58419 58.4153ZM32.4997 36.5623C31.6963 36.5623 30.9108 36.324 30.2427 35.8776C29.5746 35.4312 29.0539 34.7967 28.7465 34.0544C28.439 33.3121 28.3585 32.4952 28.5153 31.7072C28.672 30.9191 29.059 30.1953 29.6271 29.6271C30.1953 29.059 30.9191 28.672 31.7072 28.5153C32.4952 28.3585 33.3121 28.439 34.0544 28.7465C34.7967 29.0539 35.4312 29.5746 35.8776 30.2427C36.324 30.9108 36.5623 31.6963 36.5623 32.4997C36.5623 33.5772 36.1343 34.6105 35.3724 35.3724C34.6105 36.1343 33.5772 36.5623 32.4997 36.5623ZM58.4153 58.4187C55.8288 61.0086 47.4465 59.2583 36.9922 52.1489C39.7749 49.8979 42.4384 47.5034 44.9717 44.9751C47.4984 42.442 49.8896 39.7774 52.1353 36.9922C59.2447 47.4465 61.0018 55.8288 58.4153 58.4153V58.4187Z" fill="black"/>
</svg>
