<svg width="297" height="200" viewBox="0 0 297 200" fill="none" xmlns="http://www.w3.org/2000/svg">
<path d="M210.859 160.145V4.74414L95.1983 4.74414L95.1983 160.145H210.859Z" fill="#2F2E41"/>
<path d="M230.727 0H75.3267V61.6857H230.727V0Z" fill="#3F3D56"/>
<path d="M230.727 68.8027H75.3267V130.488H230.727V68.8027Z" fill="#3F3D56"/>
<path d="M230.727 137.606H75.3267V199.292H230.727V137.606Z" fill="#3F3D56"/>
<path d="M230.727 26.157H75.3267V35.6471H230.727V26.157Z" fill="#051923"/>
<path d="M230.727 94.9595H75.3267V104.45H230.727V94.9595Z" fill="#051923"/>
<path d="M230.727 163.762H75.3267V173.252H230.727V163.762Z" fill="#051923"/>
<path d="M200.479 12.4543C202.444 12.4543 204.038 10.8609 204.038 8.89546C204.038 6.93 202.444 5.33667 200.479 5.33667C198.513 5.33667 196.92 6.93 196.92 8.89546C196.92 10.8609 198.513 12.4543 200.479 12.4543Z" fill="#051923"/>
<path d="M212.935 12.4543C214.9 12.4543 216.493 10.8609 216.493 8.89546C216.493 6.93 214.9 5.33667 212.935 5.33667C210.969 5.33667 209.376 6.93 209.376 8.89546C209.376 10.8609 210.969 12.4543 212.935 12.4543Z" fill="#051923"/>
<path d="M225.39 12.4543C227.355 12.4543 228.949 10.8609 228.949 8.89546C228.949 6.93 227.355 5.33667 225.39 5.33667C223.424 5.33667 221.831 6.93 221.831 8.89546C221.831 10.8609 223.424 12.4543 225.39 12.4543Z" fill="#051923"/>
<path d="M200.479 80.0724C202.444 80.0724 204.038 78.4791 204.038 76.5136C204.038 74.5482 202.444 72.9548 200.479 72.9548C198.513 72.9548 196.92 74.5482 196.92 76.5136C196.92 78.4791 198.513 80.0724 200.479 80.0724Z" fill="#051923"/>
<path d="M212.935 80.0724C214.9 80.0724 216.493 78.4791 216.493 76.5136C216.493 74.5482 214.9 72.9548 212.935 72.9548C210.969 72.9548 209.376 74.5482 209.376 76.5136C209.376 78.4791 210.969 80.0724 212.935 80.0724Z" fill="#051923"/>
<path d="M225.39 80.0724C227.355 80.0724 228.949 78.4791 228.949 76.5136C228.949 74.5482 227.355 72.9548 225.39 72.9548C223.424 72.9548 221.831 74.5482 221.831 76.5136C221.831 78.4791 223.424 80.0724 225.39 80.0724Z" fill="#051923"/>
<path d="M200.479 147.691C202.444 147.691 204.038 146.097 204.038 144.132C204.038 142.166 202.444 140.573 200.479 140.573C198.513 140.573 196.92 142.166 196.92 144.132C196.92 146.097 198.513 147.691 200.479 147.691Z" fill="#051923"/>
<path d="M212.935 147.691C214.9 147.691 216.493 146.097 216.493 144.132C216.493 142.166 214.9 140.573 212.935 140.573C210.969 140.573 209.376 142.166 209.376 144.132C209.376 146.097 210.969 147.691 212.935 147.691Z" fill="#051923"/>
<path d="M225.39 147.691C227.355 147.691 228.949 146.097 228.949 144.132C228.949 142.166 227.355 140.573 225.39 140.573C223.424 140.573 221.831 142.166 221.831 144.132C221.831 146.097 223.424 147.691 225.39 147.691Z" fill="#051923"/>
<path d="M296.566 198.814H0V200H296.566V198.814Z" fill="#3F3D56"/>
</svg>
