<svg width="275" height="200" viewBox="0 0 275 200" fill="none" xmlns="http://www.w3.org/2000/svg">
<path d="M258.88 1.32376H49.032C49.0261 0.970781 48.8818 0.634251 48.6302 0.386652C48.3785 0.139054 48.0397 0.000199293 47.6867 0H39.4217C39.0687 0.000150387 38.7298 0.138985 38.4781 0.386595C38.2265 0.634204 38.0822 0.970765 38.0763 1.32376H36.0523C36.0464 0.970781 35.9021 0.634251 35.6504 0.386652C35.3988 0.139054 35.0599 0.000199293 34.7069 0H26.442C26.0889 0.000199293 25.7501 0.139054 25.4984 0.386652C25.2468 0.634251 25.1025 0.970781 25.0966 1.32376H17.7321C13.4583 1.32856 9.36096 3.02837 6.3389 6.05029C3.31684 9.0722 1.61691 13.1694 1.61204 17.4431V17.6018C1.58677 17.6003 1.56255 17.5942 1.53675 17.5942H1.34775C1.17076 17.5942 0.995504 17.629 0.831986 17.6968C0.668467 17.7645 0.519888 17.8638 0.394737 17.9889C0.269586 18.1141 0.170311 18.2626 0.102582 18.4261C0.0348526 18.5897 -4.98362e-06 18.7649 5.3442e-10 18.9419V34.706C-4.98362e-06 34.883 0.0348526 35.0582 0.102582 35.2217C0.170311 35.3852 0.269586 35.5338 0.394737 35.659C0.519888 35.7841 0.668467 35.8834 0.831986 35.9511C0.995504 36.0188 1.17076 36.0537 1.34775 36.0537H1.53675C1.56256 36.0537 1.58677 36.0475 1.61204 36.0461V183.881C1.61691 188.154 3.31684 192.252 6.3389 195.273C9.36096 198.295 13.4583 199.995 17.7321 200H258.88C263.154 199.995 267.251 198.295 270.273 195.273C273.295 192.251 274.995 188.154 275 183.881V17.4431C274.995 13.1695 273.295 9.07227 270.273 6.05036C267.251 3.02845 263.154 1.32861 258.88 1.32376ZM270.148 183.881C270.145 186.868 268.956 189.732 266.844 191.844C264.732 193.957 261.868 195.145 258.88 195.148H17.7321C14.7447 195.145 11.8806 193.957 9.76811 191.844C7.65565 189.732 6.46736 186.868 6.46394 183.881V17.4431C6.46736 14.4558 7.65565 11.5917 9.76811 9.4794C11.8806 7.36705 14.7447 6.17886 17.7321 6.17551H258.88C261.868 6.17893 264.732 7.36714 266.844 9.47948C268.956 11.5918 270.145 14.4558 270.148 17.4431V183.881Z" fill="#CCCCCC"/>
<path d="M258.88 197.844H17.732C14.03 197.839 10.4807 196.367 7.86299 193.749C5.24523 191.132 3.77274 187.583 3.76855 183.881V17.443C3.77273 13.7411 5.24523 10.1919 7.86299 7.57425C10.4807 4.95658 14.03 3.48414 17.732 3.47998H258.88C262.582 3.48413 266.131 4.95656 268.749 7.57422C271.367 10.1919 272.839 13.741 272.844 17.443V183.881C272.839 187.583 271.367 191.132 268.749 193.749C266.131 196.367 262.582 197.839 258.88 197.844Z" fill="#E6E6E6"/>
<path d="M258.954 186.595H17.6583C16.8434 186.594 16.0623 186.27 15.4861 185.694C14.9099 185.117 14.5859 184.336 14.585 183.521V17.8017C14.5859 16.9869 14.91 16.2057 15.4861 15.6296C16.0623 15.0535 16.8435 14.7294 17.6583 14.7285H258.954C259.769 14.7294 260.55 15.0535 261.126 15.6296C261.702 16.2057 262.026 16.9869 262.027 17.8017V183.521C262.026 184.336 261.702 185.117 261.126 185.694C260.55 186.27 259.769 186.594 258.954 186.595Z" fill="white"/>
<path d="M9.23005 101.527C9.86725 101.527 10.3838 101.011 10.3838 100.373C10.3838 99.7363 9.86725 99.2197 9.23005 99.2197C8.59285 99.2197 8.07629 99.7363 8.07629 100.373C8.07629 101.011 8.59285 101.527 9.23005 101.527Z" fill="white"/>
<path d="M105.301 36.6572H54.0411C50.02 36.6618 46.1649 38.2611 43.3216 41.1044C40.4783 43.9476 38.8789 47.8025 38.8743 51.8235V56.4566C38.7691 56.4277 38.6586 56.4236 38.5516 56.4447C38.4445 56.4657 38.3438 56.5114 38.2574 56.5781C38.171 56.6447 38.1013 56.7306 38.0538 56.8288C38.0063 56.927 37.9822 57.0349 37.9836 57.1441V60.707C37.9822 60.8161 38.0063 60.924 38.0538 61.0222C38.1013 61.1205 38.171 61.2063 38.2574 61.2729C38.3438 61.3396 38.4445 61.3853 38.5516 61.4064C38.6586 61.4274 38.7691 61.4233 38.8743 61.3944V66.7892C38.7691 66.7602 38.6586 66.7561 38.5516 66.7771C38.4445 66.7982 38.3438 66.8439 38.2574 66.9105C38.171 66.9772 38.1013 67.063 38.0538 67.1613C38.0063 67.2595 37.9822 67.3674 37.9836 67.4765V76.3839C37.9822 76.493 38.0063 76.6009 38.0538 76.6991C38.1013 76.7974 38.171 76.8832 38.2574 76.9499C38.3438 77.0165 38.4445 77.0622 38.5516 77.0833C38.6586 77.1043 38.7691 77.1002 38.8743 77.0712V80.3283C38.7691 80.2993 38.6586 80.2952 38.5516 80.3163C38.4445 80.3373 38.3438 80.383 38.2574 80.4497C38.171 80.5163 38.1013 80.6022 38.0538 80.7004C38.0063 80.7986 37.9822 80.9065 37.9836 81.0157V89.923C37.9822 90.0321 38.0063 90.14 38.0538 90.2382C38.1013 90.3365 38.171 90.4223 38.2574 90.489C38.3438 90.5556 38.4445 90.6013 38.5516 90.6224C38.6586 90.6434 38.7691 90.6393 38.8743 90.6104V184.673C38.8789 188.694 40.4783 192.549 43.3216 195.392C46.1649 198.235 50.02 199.835 54.0411 199.839H105.301C109.322 199.835 113.177 198.235 116.021 195.392C118.864 192.549 120.463 188.694 120.468 184.673V51.8235C120.463 47.8025 118.864 43.9476 116.021 41.1044C113.177 38.2611 109.322 36.6618 105.301 36.6572ZM117.261 184.673C117.258 187.844 115.996 190.884 113.754 193.126C111.512 195.368 108.472 196.629 105.301 196.633H54.0411C50.8702 196.629 47.8302 195.368 45.588 193.126C43.3459 190.884 42.0847 187.844 42.0811 184.673V51.8235C42.0847 48.6527 43.3459 45.6128 45.588 43.3707C47.8302 41.1286 50.8702 39.8674 54.0411 39.8639H105.301C108.472 39.8674 111.512 41.1286 113.754 43.3707C115.996 45.6128 117.258 48.6527 117.261 51.8235V184.673Z" fill="#CCCCCC"/>
<path d="M105.301 198.414H54.0411C50.3979 198.41 46.9051 196.961 44.3289 194.385C41.7528 191.809 40.3037 188.316 40.2996 184.673V51.8236C40.3037 48.1805 41.7528 44.6878 44.3289 42.1118C46.9051 39.5357 50.3979 38.0867 54.0411 38.0825H105.301C108.944 38.0867 112.437 39.5357 115.013 42.1118C117.589 44.6878 119.039 48.1805 119.043 51.8236V184.673C119.039 188.316 117.589 191.809 115.013 194.385C112.437 196.961 108.944 198.41 105.301 198.414Z" fill="#E6E6E6"/>
<path d="M106.568 196.276H52.7743C50.3172 196.274 47.9614 195.296 46.2239 193.559C44.4864 191.821 43.509 189.466 43.5062 187.009V49.488C43.509 47.0309 44.4864 44.6752 46.2239 42.9378C47.9614 41.2003 50.3171 40.223 52.7743 40.2202H59.7896C60.1957 40.2207 60.5851 40.3822 60.8723 40.6694C61.1594 40.9566 61.3209 41.3459 61.3214 41.752C61.3227 42.9518 61.8 44.102 62.6483 44.9503C63.4967 45.7987 64.6469 46.2759 65.8467 46.2772H92.7827C93.9825 46.2759 95.1328 45.7987 95.9811 44.9503C96.8295 44.102 97.3067 42.9518 97.3081 41.752C97.3085 41.3459 97.4701 40.9566 97.7572 40.6694C98.0444 40.3822 98.4338 40.2207 98.8399 40.2202H106.568C109.025 40.223 111.381 41.2003 113.118 42.9378C114.856 44.6752 115.833 47.0309 115.836 49.488V187.009C115.833 189.466 114.856 191.821 113.118 193.559C111.381 195.296 109.025 196.274 106.568 196.276Z" fill="white"/>
<path d="M81.987 43.3378H75.5736C75.3846 43.3378 75.2033 43.2627 75.0697 43.1291C74.936 42.9954 74.861 42.8142 74.861 42.6252C74.861 42.4362 74.936 42.2549 75.0697 42.1213C75.2033 41.9877 75.3846 41.9126 75.5736 41.9126H81.987C82.1758 41.913 82.3566 41.9883 82.4899 42.1219C82.6232 42.2555 82.698 42.4365 82.698 42.6252C82.698 42.8139 82.6232 42.9949 82.4899 43.1285C82.3566 43.2621 82.1758 43.3373 81.987 43.3378Z" fill="white"/>
<path d="M86.4409 43.1594C86.6377 43.1594 86.7972 42.9998 86.7972 42.8031C86.7972 42.6063 86.6377 42.4468 86.4409 42.4468C86.2441 42.4468 86.0846 42.6063 86.0846 42.8031C86.0846 42.9998 86.2441 43.1594 86.4409 43.1594Z" fill="white"/>
<path d="M86.8021 76.8252L86.8765 78.4828C95.351 78.1031 105.164 78.8415 115.608 80.5845V78.9036C105.148 77.1742 95.313 76.444 86.8021 76.8252Z" fill="#CCCCCC"/>
<path d="M76.2647 109.292C76.1989 109.927 76.1452 110.565 76.1038 111.207C76.0164 112.47 75.9727 113.742 75.9727 115.025C75.9792 126.967 79.8402 138.588 86.9814 148.16C94.1226 157.732 104.163 164.743 115.608 168.151V61.8887C105.097 65.0133 95.7489 71.1848 88.7457 79.6227C81.7425 88.0605 77.399 98.3857 76.2647 109.292Z" fill="#051923"/>
<path d="M48.6071 77.1674C49.2105 77.1674 49.6996 76.6783 49.6996 76.0749C49.6996 75.4716 49.2105 74.9824 48.6071 74.9824C48.0037 74.9824 47.5145 75.4716 47.5145 76.0749C47.5145 76.6783 48.0037 77.1674 48.6071 77.1674Z" fill="#CCCCCC"/>
<path d="M46.2784 120.994C47.4704 120.994 48.4367 120.027 48.4367 118.835C48.4367 117.644 47.4704 116.677 46.2784 116.677C45.0864 116.677 44.1201 117.644 44.1201 118.835C44.1201 120.027 45.0864 120.994 46.2784 120.994Z" fill="#CCCCCC"/>
<path d="M86.9231 63.8748C87.7864 63.8748 88.4863 63.175 88.4863 62.3117C88.4863 61.4484 87.7864 60.7485 86.9231 60.7485C86.0597 60.7485 85.3599 61.4484 85.3599 62.3117C85.3599 63.175 86.0597 63.8748 86.9231 63.8748Z" fill="#CCCCCC"/>
<path d="M51.359 150.565C52.0478 150.565 52.6061 150.007 52.6061 149.318C52.6061 148.629 52.0478 148.071 51.359 148.071C50.6702 148.071 50.1118 148.629 50.1118 149.318C50.1118 150.007 50.6702 150.565 51.359 150.565Z" fill="#CCCCCC"/>
<path d="M76.5502 168.026C77.2961 168.026 77.9008 167.422 77.9008 166.676C77.9008 165.93 77.2961 165.325 76.5502 165.325C75.8043 165.325 75.1996 165.93 75.1996 166.676C75.1996 167.422 75.8043 168.026 76.5502 168.026Z" fill="#CCCCCC"/>
<path d="M115.813 30.6902H113.147V28.0249H111.717V30.6902H109.051V32.1209H111.717V34.7862H113.147V32.1209H115.813V30.6902Z" fill="#CCCCCC"/>
<path opacity="0.1" d="M96.4492 110.368C99.0213 110.368 101.106 108.283 101.106 105.711C101.106 103.139 99.0213 101.054 96.4492 101.054C93.8771 101.054 91.792 103.139 91.792 105.711C91.792 108.283 93.8771 110.368 96.4492 110.368Z" fill="black"/>
<path opacity="0.1" d="M98.7778 143.179C101.35 143.179 103.435 141.094 103.435 138.522C103.435 135.95 101.35 133.865 98.7778 133.865C96.2057 133.865 94.1206 135.95 94.1206 138.522C94.1206 141.094 96.2057 143.179 98.7778 143.179Z" fill="black"/>
<path d="M78.2316 109.325C72.5168 105.488 68.2601 101.702 65.5801 98.0732C62.9065 94.4529 61.9532 91.1824 62.7463 88.3525C63.5395 85.5225 66.0539 83.2239 70.2197 81.5206C74.3956 79.813 79.9997 78.791 86.8762 78.4829L86.8021 76.8252C72.0769 77.4851 62.9661 81.4198 61.1486 87.9046C59.3311 94.3894 65.0692 102.486 77.3066 110.703C87.2859 117.404 100.652 123.592 115.608 128.493V126.746C101.005 121.921 87.9743 115.867 78.2316 109.325Z" fill="#CCCCCC"/>
<path opacity="0.1" d="M78.231 110.653C77.5557 110.199 76.9003 109.745 76.2647 109.292C76.1989 109.927 76.1453 110.565 76.1039 111.207C76.4976 111.482 76.8986 111.756 77.3069 112.03C87.2862 118.731 100.652 124.919 115.608 129.82V128.074C101.006 123.248 87.9751 117.195 78.231 110.653Z" fill="black"/>
<path d="M140.034 83.9274C133.507 82.0981 127.038 80.6082 120.761 79.4614V81.1477C126.893 82.2782 133.21 83.738 139.586 85.5251C159.884 91.2142 178.252 99.5053 189.979 108.272L190.973 106.943C179.088 98.0585 160.521 89.6696 140.034 83.9274Z" fill="#CCCCCC"/>
<path d="M188.762 115.025C188.757 106.679 186.868 98.442 183.236 90.9276C179.605 83.4133 174.324 76.8155 167.787 71.6261C161.251 66.4367 153.627 62.7895 145.485 60.9563C137.342 59.1232 128.891 59.1514 120.761 61.0388V169.007C132.985 171.853 145.812 170.467 157.146 165.077C168.481 159.687 177.651 150.612 183.158 139.335C183.444 138.752 183.719 138.163 183.983 137.569C187.144 130.474 188.772 122.792 188.762 115.025Z" fill="#051923"/>
<path d="M134.807 49.6104C135.157 49.6104 135.442 49.3261 135.442 48.9754C135.442 48.6247 135.157 48.3403 134.807 48.3403C134.456 48.3403 134.172 48.6247 134.172 48.9754C134.172 49.3261 134.456 49.6104 134.807 49.6104Z" fill="#F2F2F2"/>
<path d="M177.78 54.224C178.574 54.224 179.218 53.58 179.218 52.7856C179.218 51.9912 178.574 51.3472 177.78 51.3472C176.985 51.3472 176.341 51.9912 176.341 52.7856C176.341 53.58 176.985 54.224 177.78 54.224Z" fill="#CCCCCC"/>
<path d="M228.797 114.82C230.087 114.82 231.133 113.775 231.133 112.485C231.133 111.195 230.087 110.149 228.797 110.149C227.507 110.149 226.462 111.195 226.462 112.485C226.462 113.775 227.507 114.82 228.797 114.82Z" fill="#CCCCCC"/>
<path d="M210.535 76.1861C211.088 76.1861 211.537 75.7375 211.537 75.1841C211.537 74.6307 211.088 74.1821 210.535 74.1821C209.981 74.1821 209.533 74.6307 209.533 75.1841C209.533 75.7375 209.981 76.1861 210.535 76.1861Z" fill="#CCCCCC"/>
<path d="M207.028 108.751C207.581 108.751 208.03 108.302 208.03 107.749C208.03 107.196 207.581 106.747 207.028 106.747C206.474 106.747 206.026 107.196 206.026 107.749C206.026 108.302 206.474 108.751 207.028 108.751Z" fill="#CCCCCC"/>
<path d="M179.585 174.902H177.911V173.229H177.013V174.902H175.34V175.8H177.013V177.474H177.911V175.8H179.585V174.902Z" fill="#CCCCCC"/>
<path d="M218.212 166.336H216.961V165.085H216.289V166.336H215.038V167.008H216.289V168.259H216.961V167.008H218.212V166.336Z" fill="#CCCCCC"/>
<path opacity="0.1" d="M134.171 76.2868C136.744 76.2868 138.829 74.2017 138.829 71.6297C138.829 69.0577 136.744 66.9727 134.171 66.9727C131.599 66.9727 129.514 69.0577 129.514 71.6297C129.514 74.2017 131.599 76.2868 134.171 76.2868Z" fill="black"/>
<path opacity="0.1" d="M134.171 117.565C136.744 117.565 138.829 115.48 138.829 112.908C138.829 110.336 136.744 108.251 134.171 108.251C131.599 108.251 129.514 110.336 129.514 112.908C129.514 115.48 131.599 117.565 134.171 117.565Z" fill="black"/>
<path opacity="0.1" d="M159.151 92.5866C161.723 92.5866 163.808 90.5015 163.808 87.9295C163.808 85.3575 161.723 83.2725 159.151 83.2725C156.579 83.2725 154.494 85.3575 154.494 87.9295C154.494 90.5015 156.579 92.5866 159.151 92.5866Z" fill="black"/>
<path opacity="0.1" d="M174.604 124.128C177.177 124.128 179.262 122.043 179.262 119.471C179.262 116.899 177.177 114.813 174.604 114.813C172.032 114.813 169.947 116.899 169.947 119.471C169.947 122.043 172.032 124.128 174.604 124.128Z" fill="black"/>
<path d="M201.434 117.357C199.247 114.002 195.728 110.498 190.973 106.943L189.979 108.272C199.219 115.18 203.523 121.783 202.099 126.864C201.306 129.694 198.791 131.993 194.626 133.696C190.45 135.403 184.846 136.425 177.969 136.734C176.508 136.799 175.009 136.832 173.471 136.832C160.017 136.831 143.793 134.34 127.206 129.691C125.031 129.082 122.883 128.444 120.761 127.778V129.516C122.737 130.13 124.736 130.721 126.758 131.289C143.49 135.979 159.87 138.491 173.48 138.491C175.038 138.491 176.562 138.458 178.043 138.391C192.769 137.731 201.879 133.797 203.697 127.312C204.54 124.304 203.779 120.955 201.434 117.357Z" fill="#CCCCCC"/>
<path opacity="0.1" d="M177.969 138.061C176.509 138.126 175.009 138.159 173.471 138.159C160.017 138.159 143.792 135.668 127.206 131.019C125.031 130.409 122.883 129.772 120.761 129.106V130.844C122.737 131.458 124.736 132.049 126.758 132.617C143.49 137.306 159.87 139.818 173.479 139.818C175.037 139.818 176.562 139.785 178.044 139.718C179.834 139.639 181.539 139.511 183.158 139.335C183.444 138.752 183.719 138.164 183.983 137.57C182.101 137.801 180.097 137.964 177.969 138.061Z" fill="black"/>
<path d="M159.133 74.5729C162.486 74.5729 165.205 71.8543 165.205 68.5008C165.205 65.1473 162.486 62.4287 159.133 62.4287C155.779 62.4287 153.06 65.1473 153.06 68.5008C153.06 71.8543 155.779 74.5729 159.133 74.5729Z" fill="white"/>
<path d="M159.151 59.5635C156.849 59.5635 154.641 60.4779 153.014 62.1055C151.386 63.7332 150.472 65.9407 150.472 68.2425C150.472 73.0358 159.151 88.7759 159.151 88.7759C159.151 88.7759 167.83 73.0358 167.83 68.2425C167.83 65.9407 166.916 63.7332 165.288 62.1055C163.66 60.4779 161.453 59.5635 159.151 59.5635ZM159.151 72.4762C158.355 72.4762 157.578 72.2403 156.916 71.7984C156.255 71.3564 155.739 70.7283 155.435 69.9934C155.131 69.2584 155.051 68.4498 155.206 67.6696C155.361 66.8894 155.744 66.1727 156.307 65.6102C156.869 65.0477 157.586 64.6647 158.366 64.5095C159.147 64.3543 159.955 64.4339 160.69 64.7384C161.425 65.0428 162.053 65.5583 162.495 66.2197C162.937 66.8811 163.173 67.6587 163.173 68.4542C163.173 69.5209 162.749 70.5439 161.995 71.2982C161.241 72.0525 160.218 72.4762 159.151 72.4762Z" fill="#3F3D56"/>
<path d="M134.084 96.5846C137.438 96.5846 140.157 93.8661 140.157 90.5125C140.157 87.159 137.438 84.4404 134.084 84.4404C130.731 84.4404 128.012 87.159 128.012 90.5125C128.012 93.8661 130.731 96.5846 134.084 96.5846Z" fill="white"/>
<path d="M134.103 81.5752C131.801 81.5752 129.593 82.4896 127.966 84.1172C126.338 85.7449 125.423 87.9524 125.423 90.2542C125.423 95.0475 134.103 110.788 134.103 110.788C134.103 110.788 142.782 95.0476 142.782 90.2542C142.782 87.9524 141.868 85.7449 140.24 84.1172C138.612 82.4896 136.405 81.5752 134.103 81.5752ZM134.103 94.4879C133.307 94.4879 132.53 94.252 131.868 93.8101C131.207 93.3682 130.691 92.74 130.387 92.0051C130.082 91.2702 130.003 90.4615 130.158 89.6813C130.313 88.9011 130.696 88.1844 131.259 87.6219C131.821 87.0594 132.538 86.6764 133.318 86.5212C134.098 86.366 134.907 86.4457 135.642 86.7501C136.377 87.0545 137.005 87.57 137.447 88.2314C137.889 88.8928 138.125 89.6705 138.125 90.4659C138.125 91.5326 137.701 92.5556 136.947 93.3099C136.193 94.0642 135.17 94.4879 134.103 94.4879Z" fill="#3F3D56"/>
<path d="M134.084 57.4953C137.438 57.4953 140.157 54.7767 140.157 51.4232C140.157 48.0696 137.438 45.3511 134.084 45.3511C130.731 45.3511 128.012 48.0696 128.012 51.4232C128.012 54.7767 130.731 57.4953 134.084 57.4953Z" fill="white"/>
<path d="M134.103 42.4858C131.801 42.4858 129.593 43.4002 127.966 45.0279C126.338 46.6555 125.423 48.8631 125.423 51.1649C125.423 55.9582 134.103 71.6983 134.103 71.6983C134.103 71.6983 142.782 55.9582 142.782 51.1649C142.782 48.8631 141.868 46.6555 140.24 45.0279C138.612 43.4002 136.405 42.4858 134.103 42.4858ZM134.103 55.3986C133.307 55.3986 132.53 55.1627 131.868 54.7207C131.207 54.2788 130.691 53.6507 130.387 52.9157C130.082 52.1808 130.003 51.3721 130.158 50.5919C130.313 49.8117 130.696 49.0951 131.259 48.5326C131.821 47.9701 132.538 47.587 133.318 47.4318C134.098 47.2767 134.907 47.3563 135.642 47.6607C136.377 47.9651 137.005 48.4806 137.447 49.1421C137.889 49.8035 138.125 50.5811 138.125 51.3766C138.125 51.9048 138.021 52.4278 137.819 52.9157C137.617 53.4037 137.32 53.8471 136.947 54.2206C136.573 54.594 136.13 54.8903 135.642 55.0924C135.154 55.2946 134.631 55.3986 134.103 55.3986Z" fill="#CCCCCC"/>
<path d="M174.693 104.554C178.046 104.554 180.765 101.835 180.765 98.4818C180.765 95.1282 178.046 92.4097 174.693 92.4097C171.339 92.4097 168.62 95.1282 168.62 98.4818C168.62 101.835 171.339 104.554 174.693 104.554Z" fill="white"/>
<path d="M174.711 89.5449C172.409 89.5449 170.202 90.4593 168.574 92.087C166.946 93.7146 166.032 95.9221 166.032 98.224C166.032 103.017 174.711 118.757 174.711 118.757C174.711 118.757 183.391 103.017 183.391 98.224C183.391 95.9221 182.476 93.7146 180.848 92.087C179.221 90.4593 177.013 89.5449 174.711 89.5449ZM174.711 102.458C173.916 102.458 173.138 102.222 172.477 101.78C171.815 101.338 171.3 100.71 170.995 99.9748C170.691 99.2399 170.611 98.4312 170.766 97.651C170.922 96.8708 171.305 96.1542 171.867 95.5917C172.43 95.0292 173.146 94.6461 173.927 94.4909C174.707 94.3357 175.516 94.4154 176.25 94.7198C176.985 95.0242 177.614 95.5397 178.056 96.2011C178.498 96.8626 178.733 97.6402 178.733 98.4357C178.733 99.5024 178.31 100.525 177.555 101.28C176.801 102.034 175.778 102.458 174.711 102.458Z" fill="#CCCCCC"/>
<path d="M96.512 90.8918C99.8656 90.8918 102.584 88.1732 102.584 84.8197C102.584 81.4661 99.8656 78.7476 96.512 78.7476C93.1584 78.7476 90.4397 81.4661 90.4397 84.8197C90.4397 88.1732 93.1584 90.8918 96.512 90.8918Z" fill="white"/>
<path d="M96.5305 75.8823C94.2286 75.8823 92.021 76.7967 90.3933 78.4244C88.7656 80.052 87.8512 82.2595 87.8512 84.5614C87.8512 89.3547 96.5305 105.095 96.5305 105.095C96.5305 105.095 105.21 89.3547 105.21 84.5614C105.21 82.2595 104.295 80.052 102.668 78.4244C101.04 76.7967 98.8324 75.8823 96.5305 75.8823ZM96.5305 88.7951C95.735 88.7951 94.9574 88.5592 94.2959 88.1172C93.6345 87.6753 93.119 87.0471 92.8145 86.3122C92.5101 85.5773 92.4304 84.7686 92.5856 83.9884C92.7408 83.2082 93.1239 82.4916 93.6864 81.9291C94.2489 81.3666 94.9656 80.9835 95.7458 80.8283C96.526 80.6731 97.3347 80.7528 98.0697 81.0572C98.8046 81.3616 99.4328 81.8771 99.8748 82.5385C100.317 83.2 100.553 83.9776 100.553 84.7731C100.553 85.8398 100.129 86.8628 99.3746 87.617C98.6203 88.3713 97.5972 88.7951 96.5305 88.7951Z" fill="#CCCCCC"/>
<path d="M98.7891 123.909C102.143 123.909 104.861 121.19 104.861 117.837C104.861 114.483 102.143 111.765 98.7891 111.765C95.4354 111.765 92.7168 114.483 92.7168 117.837C92.7168 121.19 95.4354 123.909 98.7891 123.909Z" fill="white"/>
<path d="M98.8076 108.899C96.5057 108.899 94.2981 109.814 92.6704 111.441C91.0427 113.069 90.1283 115.277 90.1283 117.578C90.1283 122.372 98.8076 138.112 98.8076 138.112C98.8076 138.112 107.487 122.372 107.487 117.578C107.487 115.277 106.572 113.069 104.945 111.441C103.317 109.814 101.109 108.899 98.8076 108.899ZM98.8076 121.812C98.0121 121.812 97.2345 121.576 96.573 121.134C95.9116 120.692 95.3961 120.064 95.0916 119.329C94.7872 118.594 94.7075 117.786 94.8627 117.005C95.0179 116.225 95.401 115.509 95.9635 114.946C96.526 114.384 97.2427 114.001 98.0229 113.845C98.8031 113.69 99.6118 113.77 100.347 114.074C101.082 114.379 101.71 114.894 102.152 115.556C102.594 116.217 102.83 116.995 102.83 117.79C102.83 118.857 102.406 119.88 101.652 120.634C100.897 121.388 99.8743 121.812 98.8076 121.812Z" fill="#3F3D56"/>
</svg>
