<svg width="65" height="65" viewBox="0 0 65 65" fill="none" xmlns="http://www.w3.org/2000/svg">
<path d="M61.9531 0H3.04688C1.36413 0 0 1.36413 0 3.04688V61.9531C0 63.6359 1.36413 65 3.04688 65H61.9531C63.6359 65 65 63.6359 65 61.9531V3.04688C65 1.36413 63.6359 0 61.9531 0Z" fill="#051923"/>
<path fill-rule="evenodd" clip-rule="evenodd" d="M37.7113 50.5111V57.6337C38.8652 58.2268 40.2299 58.6721 41.8055 58.9687C43.3811 59.2658 45.0417 59.4141 46.7874 59.4141C48.4887 59.4141 50.1049 59.2511 51.6359 58.9245C53.1675 58.598 54.5096 58.0602 55.6639 57.3107C56.8176 56.5612 57.7312 55.5821 58.4045 54.3725C59.0774 53.1634 59.4141 51.6684 59.4141 49.8879C59.4141 48.5969 59.2216 47.4655 58.8372 46.4936C58.4523 45.5217 57.8977 44.6574 57.1726 43.9006C56.4479 43.1439 55.5786 42.465 54.5655 41.8641C53.5519 41.2631 52.4093 40.6955 51.1367 40.1614C50.2048 39.7756 49.3689 39.4009 48.6292 39.0374C47.8895 38.6738 47.2608 38.3029 46.743 37.9245C46.2252 37.5461 45.8258 37.1455 45.5447 36.7226C45.2636 36.2997 45.1231 35.8211 45.1231 35.287C45.1231 34.7973 45.2488 34.3559 45.5003 33.9627C45.7518 33.5695 46.1069 33.2319 46.5655 32.9499C47.0241 32.668 47.5862 32.4492 48.252 32.2934C48.9177 32.1375 49.6574 32.0596 50.4711 32.0596C51.0631 32.0596 51.6877 32.1042 52.3463 32.1932C53.0045 32.2822 53.6666 32.4195 54.3324 32.605C54.9981 32.7904 55.6451 33.0241 56.2743 33.3061C56.9029 33.588 57.4834 33.9144 58.0161 34.2854V27.6304C56.9359 27.2149 55.7563 26.9071 54.4766 26.7067C53.1969 26.5064 51.7288 26.4062 50.0716 26.4062C48.3851 26.4062 46.7874 26.588 45.2784 26.9515C43.7694 27.3151 42.4417 27.8827 41.2951 28.6542C40.1486 29.4259 39.2424 30.4089 38.5767 31.6034C37.911 32.7978 37.5781 34.226 37.5781 35.8879C37.5781 38.0098 38.1884 39.8201 39.4089 41.3187C40.6294 42.8174 42.4823 44.0861 44.9677 45.1248C45.9441 45.5254 46.854 45.9186 47.6972 46.3044C48.5405 46.6902 49.2691 47.0908 49.883 47.5063C50.497 47.9218 50.9813 48.3744 51.3363 48.864C51.6918 49.3537 51.869 49.9101 51.869 50.5333C51.869 50.9935 51.7583 51.4201 51.5364 51.8131C51.3145 52.2062 50.9778 52.5474 50.5266 52.8369C50.0753 53.1263 49.5132 53.3528 48.84 53.5158C48.1669 53.6788 47.3792 53.7606 46.4767 53.7606C44.9381 53.7606 43.4144 53.4899 41.9053 52.9481C40.3964 52.4068 38.9984 51.5943 37.7113 50.5111ZM25.7474 32.7815H35.0391V26.9141H9.14062V32.7815H18.3868V58.9062H25.7474V32.7815Z" fill="white"/>
</svg>
