<svg width="259" height="200" viewBox="0 0 259 200" fill="none" xmlns="http://www.w3.org/2000/svg">
<path d="M24.8383 199.491C24.8276 199.614 24.866 199.737 24.9451 199.832C25.0242 199.928 25.1378 199.988 25.261 200H235.964C236.083 199.979 236.191 199.916 236.269 199.823C236.347 199.73 236.39 199.612 236.39 199.491C236.39 199.37 236.347 199.252 236.269 199.159C236.191 199.066 236.083 199.003 235.964 198.982H25.261C25.1378 198.994 25.0242 199.054 24.9451 199.15C24.866 199.245 24.8276 199.368 24.8383 199.491Z" fill="#D6D6E3"/>
<path d="M138.057 149.268C137.751 151.381 136.694 153.312 135.08 154.708C133.466 156.105 131.403 156.874 129.269 156.874C127.135 156.874 125.072 156.105 123.458 154.708C121.844 153.312 120.787 151.381 120.481 149.268H97.9972V198.982H160.541V149.268H138.057Z" fill="#D6D6E3"/>
<path d="M255.051 150.541H3.48669C2.56225 150.54 1.67595 150.173 1.02227 149.519C0.36859 148.865 0.000941081 147.979 0 147.055L0 3.4867C0.000941081 2.56226 0.36859 1.67595 1.02227 1.02227C1.67595 0.368591 2.56225 0.000941081 3.48669 0H255.051C255.976 0.00119765 256.862 0.368961 257.515 1.02261C258.169 1.67626 258.536 2.56242 258.537 3.4867V147.055C258.536 147.979 258.168 148.865 257.515 149.519C256.861 150.173 255.975 150.54 255.05 150.541H255.051Z" fill="#090814"/>
<path d="M252.667 5.81799H6.49182V144.723H252.667V5.81799Z" fill="white"/>
<path d="M49.4453 13.5732H17.1281C16.4142 13.5732 15.8354 14.152 15.8354 14.8659V128.622C15.8354 129.336 16.4142 129.915 17.1281 129.915H49.4453C50.1592 129.915 50.7379 129.336 50.7379 128.622V14.8659C50.7379 14.152 50.1592 13.5732 49.4453 13.5732Z" fill="#051923"/>
<path d="M30.0549 18.4208H36.5183C37.0326 18.4208 37.5258 18.6251 37.8894 18.9887C38.253 19.3523 38.4573 19.8455 38.4573 20.3598V21.6525C38.4573 22.1668 38.253 22.66 37.8894 23.0236C37.5258 23.3872 37.0326 23.5915 36.5183 23.5915H30.0549C29.5406 23.5915 29.0474 23.3872 28.6838 23.0236C28.3201 22.66 28.1158 22.1668 28.1158 21.6525V20.3598C28.1158 19.8455 28.3201 19.3523 28.6838 18.9887C29.0474 18.6251 29.5406 18.4208 30.0549 18.4208Z" fill="white"/>
<path d="M21.6524 119.573H44.9208C45.2636 119.573 45.5924 119.709 45.8348 119.952C46.0772 120.194 46.2134 120.523 46.2134 120.866V123.451C46.2134 123.794 46.0772 124.123 45.8348 124.365C45.5924 124.608 45.2636 124.744 44.9208 124.744H21.6524C21.3096 124.744 20.9808 124.608 20.7384 124.365C20.4959 124.123 20.3597 123.794 20.3597 123.451V120.866C20.3597 120.523 20.4959 120.194 20.7384 119.952C20.9808 119.709 21.3096 119.573 21.6524 119.573Z" fill="white"/>
<path d="M62.6953 13.5732H85.9636C86.3064 13.5732 86.6352 13.7094 86.8777 13.9519C87.1201 14.1943 87.2563 14.5231 87.2563 14.8659V17.4513C87.2563 17.7941 87.1201 18.1229 86.8777 18.3654C86.6352 18.6078 86.3064 18.744 85.9636 18.744H62.6953C62.3524 18.744 62.0236 18.6078 61.7812 18.3654C61.5388 18.1229 61.4026 17.7941 61.4026 17.4513V14.8659C61.4026 14.5231 61.5388 14.1943 61.7812 13.9519C62.0236 13.7094 62.3524 13.5732 62.6953 13.5732Z" fill="#F2F2F2"/>
<path d="M110.525 25.8538H63.988C62.5601 25.8538 61.4026 27.0113 61.4026 28.4391V51.7075C61.4026 53.1353 62.5601 54.2928 63.988 54.2928H110.525C111.952 54.2928 113.11 53.1353 113.11 51.7075V28.4391C113.11 27.0113 111.952 25.8538 110.525 25.8538Z" fill="#051923"/>
<path d="M43.6281 28.7622H22.9451C21.5173 28.7622 20.3597 29.9197 20.3597 31.3476C20.3597 32.7754 21.5173 33.9329 22.9451 33.9329H43.6281C45.0559 33.9329 46.2134 32.7754 46.2134 31.3476C46.2134 29.9197 45.0559 28.7622 43.6281 28.7622Z" fill="white"/>
<path d="M226.866 108.585H66.5733C63.7176 108.585 61.4026 110.9 61.4026 113.756V124.744C61.4026 127.6 63.7176 129.915 66.5733 129.915H226.866C229.722 129.915 232.037 127.6 232.037 124.744V113.756C232.037 110.9 229.722 108.585 226.866 108.585Z" fill="#F2F2F2"/>
<path d="M207.476 13.5732H230.744C231.087 13.5732 231.416 13.7094 231.658 13.9519C231.901 14.1943 232.037 14.5231 232.037 14.8659V17.4513C232.037 17.7941 231.901 18.1229 231.658 18.3654C231.416 18.6078 231.087 18.744 230.744 18.744H207.476C207.133 18.744 206.804 18.6078 206.562 18.3654C206.319 18.1229 206.183 17.7941 206.183 17.4513V14.8659C206.183 14.5231 206.319 14.1943 206.562 13.9519C206.804 13.7094 207.133 13.5732 207.476 13.5732Z" fill="#051923"/>
<path opacity="0.149" d="M43.6281 36.5183H22.9451C21.5173 36.5183 20.3597 37.6758 20.3597 39.1037C20.3597 40.5315 21.5173 41.6891 22.9451 41.6891H43.6281C45.0559 41.6891 46.2134 40.5315 46.2134 39.1037C46.2134 37.6758 45.0559 36.5183 43.6281 36.5183Z" fill="white"/>
<path opacity="0.149" d="M43.6281 44.2744H22.9451C21.5173 44.2744 20.3597 45.4319 20.3597 46.8598C20.3597 48.2876 21.5173 49.4452 22.9451 49.4452H43.6281C45.0559 49.4452 46.2134 48.2876 46.2134 46.8598C46.2134 45.4319 45.0559 44.2744 43.6281 44.2744Z" fill="white"/>
<path opacity="0.149" d="M43.6281 52.0305H22.9451C21.5173 52.0305 20.3597 53.188 20.3597 54.6159C20.3597 56.0437 21.5173 57.2013 22.9451 57.2013H43.6281C45.0559 57.2013 46.2134 56.0437 46.2134 54.6159C46.2134 53.188 45.0559 52.0305 43.6281 52.0305Z" fill="white"/>
<path opacity="0.149" d="M43.6281 59.7866H22.9451C21.5173 59.7866 20.3597 60.9441 20.3597 62.372C20.3597 63.7999 21.5173 64.9574 22.9451 64.9574H43.6281C45.0559 64.9574 46.2134 63.7999 46.2134 62.372C46.2134 60.9441 45.0559 59.7866 43.6281 59.7866Z" fill="white"/>
<path d="M229.452 25.8538H182.915C181.487 25.8538 180.33 27.0113 180.33 28.4391V51.7075C180.33 53.1353 181.487 54.2928 182.915 54.2928H229.452C230.879 54.2928 232.037 53.1353 232.037 51.7075V28.4391C232.037 27.0113 230.879 25.8538 229.452 25.8538Z" fill="#051923"/>
<path d="M169.988 25.8538H123.451C122.024 25.8538 120.866 27.0113 120.866 28.4391V51.7075C120.866 53.1353 122.024 54.2928 123.451 54.2928H169.988C171.416 54.2928 172.573 53.1353 172.573 51.7075V28.4391C172.573 27.0113 171.416 25.8538 169.988 25.8538Z" fill="#051923"/>
<path d="M226.866 83.3782H66.5733C63.7176 83.3782 61.4026 85.6932 61.4026 88.5489V99.5367C61.4026 102.392 63.7176 104.707 66.5733 104.707H226.866C229.722 104.707 232.037 102.392 232.037 99.5367V88.5489C232.037 85.6932 229.722 83.3782 226.866 83.3782Z" fill="#F2F2F2"/>
<path d="M226.866 58.1709H66.5733C63.7176 58.1709 61.4026 60.4859 61.4026 63.3416V74.3295C61.4026 77.1852 63.7176 79.5002 66.5733 79.5002H226.866C229.722 79.5002 232.037 77.1852 232.037 74.3295V63.3416C232.037 60.4859 229.722 58.1709 226.866 58.1709Z" fill="#F2F2F2"/>
</svg>
